<svg width="63" height="62" viewBox="0 0 63 62" fill="none" xmlns="http://www.w3.org/2000/svg">
<rect x="16" y="25" width="32" height="32" rx="8" fill="#2690EE" fill-opacity="0.18"/>
<path opacity="0.939" fill-rule="evenodd" clip-rule="evenodd" d="M47.1816 1.87692C53.1758 1.44077 57.394 3.94337 59.8359 9.38473C61.5955 15.3687 59.9205 20.1116 54.8105 23.6132C51.3505 25.3976 47.7985 25.5994 44.1543 24.2187C38.7293 21.381 36.5093 16.9208 37.4941 10.8379C38.9084 5.8709 42.1376 2.88392 47.1816 1.87692ZM47.4238 3.93551C47.5852 3.93551 47.7468 3.93551 47.9082 3.93551C47.9082 4.54098 47.9082 5.14645 47.9082 5.75192C48.554 5.75192 49.1999 5.75192 49.8457 5.75192C49.8457 5.14645 49.8457 4.54098 49.8457 3.93551C51.6435 4.13095 53.258 4.77678 54.6894 5.87301C54.8131 5.93375 54.8333 6.01448 54.75 6.1152C54.3946 6.38487 54.1524 6.70778 54.0234 7.08395C54.4693 7.55004 54.9335 7.99404 55.416 8.41598C55.739 8.13343 56.0618 7.85087 56.3848 7.56832C57.5664 9.01353 58.2526 10.6685 58.4434 12.5332C57.8379 12.5332 57.2324 12.5332 56.6269 12.5332C56.6269 13.179 56.6269 13.8249 56.6269 14.4707C57.2324 14.4707 57.8379 14.4707 58.4434 14.4707C58.2479 16.2684 57.6021 17.883 56.5059 19.3144C56.4451 19.4381 56.3644 19.4583 56.2637 19.375C55.994 19.0196 55.671 18.7774 55.2949 18.6484C54.8288 19.0943 54.3848 19.5584 53.9629 20.041C54.2454 20.3639 54.528 20.6868 54.8105 21.0097C53.3653 22.1914 51.7104 22.8776 49.8457 23.0683C49.8457 22.4629 49.8457 21.8574 49.8457 21.2519C49.1999 21.2519 48.554 21.2519 47.9082 21.2519C47.9082 21.8574 47.9082 22.4629 47.9082 23.0683C46.1104 22.8729 44.4959 22.2271 43.0644 21.1308C42.9408 21.07 42.9206 20.9894 43.0039 20.8886C43.3593 20.619 43.6015 20.296 43.7305 19.9199C43.2846 19.4538 42.8204 19.0097 42.3379 18.5879C42.0149 18.8704 41.6921 19.153 41.3691 19.4355C40.1875 17.9903 39.5013 16.3354 39.3105 14.4707C39.916 14.4707 40.5215 14.4707 41.1269 14.4707C41.1269 13.8249 41.1269 13.179 41.1269 12.5332C40.5215 12.5332 39.916 12.5332 39.3105 12.5332C39.506 10.7354 40.1518 9.12083 41.248 7.68942C41.3088 7.56578 41.3895 7.54559 41.4902 7.62887C41.7599 7.98427 42.0829 8.22645 42.459 8.35543C42.9251 7.90959 43.3691 7.4454 43.791 6.96285C43.5509 6.66209 43.2885 6.37953 43.0039 6.1152C42.9206 6.01448 42.9408 5.93375 43.0644 5.87301C44.3803 4.89167 45.8334 4.24584 47.4238 3.93551Z" fill="#2690EE"/>
<path opacity="0.97" fill-rule="evenodd" clip-rule="evenodd" d="M8.31055 3.81447C9.17218 3.76304 10.0198 3.82359 10.8535 3.99611C11.8123 5.50983 12.7408 7.04369 13.6387 8.59767C14.4046 8.65816 15.1715 8.67834 15.9395 8.65822C15.8966 8.23909 16.058 7.93635 16.4238 7.75002C18.7758 7.63201 21.1171 7.67237 23.4473 7.87111C23.5231 7.96198 23.5836 8.0629 23.6289 8.17384C23.7097 11.7259 23.7097 15.2781 23.6289 18.8301C23.5843 19.0008 23.4835 19.1219 23.3262 19.1934C21.0307 19.3331 18.7299 19.3532 16.4238 19.2539C16.2019 19.1934 16.0605 19.0521 16 18.8301C15.9396 18.3474 15.9194 17.863 15.9395 17.377C15.1312 17.3569 14.3238 17.377 13.5176 17.4375C12.8898 18.2275 12.1229 18.833 11.2168 19.2539C9.19856 19.3347 7.18034 19.3347 5.16211 19.2539C4.12438 18.9023 3.45837 18.1959 3.16406 17.1348C2.93317 15.2586 2.71117 13.3816 2.49805 11.5039C2.91938 9.21246 4.29178 8.26389 6.61523 8.65822C6.38055 8.0341 6.21909 7.38827 6.13086 6.72072C6.21676 5.25215 6.94333 4.2834 8.31055 3.81447ZM9.1582 5.75197C9.3183 5.73138 9.45957 5.77175 9.58203 5.87306C10.4445 7.41684 11.3527 8.93051 12.3066 10.4141C13.5049 10.5896 14.7158 10.6501 15.9395 10.5957C15.9395 12.2103 15.9395 13.8249 15.9395 15.4395C14.8086 15.4194 13.6783 15.4395 12.5488 15.5C11.9069 16.0207 11.3014 16.5857 10.7324 17.1953C9.16506 17.3877 7.59084 17.4281 6.00977 17.3164C5.65193 17.269 5.38956 17.0873 5.22266 16.7715C5.00485 15.0328 4.78284 13.2972 4.55664 11.5645C4.61778 11.239 4.77924 10.9766 5.04102 10.7774C6.24483 10.6285 7.45577 10.5478 8.67383 10.5352C8.78477 10.4899 8.88569 10.4293 8.97656 10.3535C9.15618 9.96574 9.19654 9.5621 9.09766 9.14259C8.76088 8.34798 8.45815 7.54069 8.18945 6.72072C8.32063 6.18582 8.64354 5.86291 9.1582 5.75197ZM17.877 9.62697C19.1687 9.62697 20.4602 9.62697 21.752 9.62697C21.752 12.2103 21.752 14.7937 21.752 17.377C20.4602 17.377 19.1687 17.377 17.877 17.377C17.877 14.7937 17.877 12.2103 17.877 9.62697Z" fill="#2690EE"/>
<path opacity="0.93" fill-rule="evenodd" clip-rule="evenodd" d="M29.0176 5.75196C31.4961 5.65038 33.9584 5.79165 36.4043 6.17578C36.4675 6.24375 36.5078 6.32449 36.5254 6.41797C36.3808 6.99968 36.2597 7.58496 36.1621 8.17383C32.6798 7.54744 29.2085 7.62817 25.748 8.41602C25.6076 7.73321 25.4865 7.04701 25.3848 6.35743C26.6077 6.13119 27.8186 5.92937 29.0176 5.75196Z" fill="#2690EE"/>
<path opacity="0.953" fill-rule="evenodd" clip-rule="evenodd" d="M47.9082 7.68945C48.554 7.68945 49.1999 7.68945 49.8457 7.68945C49.8659 9.78879 49.8457 11.8878 49.7852 13.9863C48.8183 15.0945 47.789 16.1439 46.6973 17.1348C46.1726 16.6907 45.6882 16.2063 45.2441 15.6816C46.09 14.7751 46.9579 13.8872 47.8477 13.0176C47.9082 11.242 47.9284 9.46596 47.9082 7.68945Z" fill="#2690EE"/>
<path opacity="0.926" fill-rule="evenodd" clip-rule="evenodd" d="M29.2598 10.5958C31.2886 10.5235 33.3068 10.6244 35.3145 10.8985C35.4375 10.9614 35.5181 11.0623 35.5566 11.2012C35.4345 11.8111 35.2931 12.4165 35.1328 13.0176C33.9169 12.7586 32.6858 12.5971 31.4395 12.5333C29.5577 12.6551 27.7009 12.9174 25.8691 13.3204C25.6317 12.7493 25.4298 12.164 25.2637 11.5645C26.5714 11.0855 27.9034 10.7626 29.2598 10.5958Z" fill="#2690EE"/>
<path opacity="0.938" fill-rule="evenodd" clip-rule="evenodd" d="M29.8652 18.3457C30.9155 18.3256 31.965 18.3457 33.0137 18.4062C33.2012 18.5532 33.3424 18.7349 33.4375 18.9511C33.5586 19.4355 33.6797 19.9199 33.8008 20.4043C33.9753 20.5702 34.1771 20.6913 34.4062 20.7675C34.8791 20.4166 35.3836 20.1139 35.9199 19.8593C36.2121 19.8007 36.4946 19.8412 36.7676 19.9804C37.4376 20.6099 38.0633 21.2759 38.6445 21.9785C38.5962 22.7827 38.2935 23.4891 37.7363 24.0976C37.8284 24.2721 37.909 24.4538 37.9785 24.6425C38.4973 24.8025 39.022 24.9438 39.5527 25.0664C39.769 25.1614 39.9506 25.3026 40.0977 25.4902C40.1784 26.5397 40.1784 27.5891 40.0977 28.6386C39.9506 28.8262 39.769 28.9674 39.5527 29.0625C39.022 29.185 38.4973 29.3263 37.9785 29.4863C37.909 29.6751 37.8284 29.8567 37.7363 30.0312C38.0873 30.5041 38.39 31.0086 38.6445 31.5449C38.73 31.8441 38.6897 32.1267 38.5234 32.3925C37.8862 33.1114 37.1798 33.737 36.4043 34.2695C35.6505 34.1856 34.9845 33.8828 34.4062 33.3613C34.277 33.445 34.1357 33.5055 33.9824 33.5429C33.7184 34.051 33.5368 34.596 33.4375 35.1777C33.3424 35.394 33.2012 35.5756 33.0137 35.7226C31.9642 35.8034 30.9148 35.8034 29.8652 35.7226C29.6777 35.5756 29.5365 35.394 29.4414 35.1777C29.3203 34.6933 29.1992 34.209 29.0781 33.7246C28.9036 33.5587 28.7018 33.4376 28.4727 33.3613C27.9998 33.7122 27.4953 34.015 26.959 34.2695C26.6668 34.3281 26.3843 34.2877 26.1113 34.1484C25.4413 33.519 24.8156 32.8529 24.2344 32.1504C24.1536 31.9485 24.1536 31.7468 24.2344 31.5449C24.4889 31.0086 24.7916 30.5041 25.1426 30.0312C25.0505 29.8567 24.9699 29.6751 24.9004 29.4863C24.3816 29.3263 23.8569 29.185 23.3262 29.0625C23.1099 28.9674 22.9283 28.8262 22.7812 28.6386C22.7005 27.5891 22.7005 26.5397 22.7812 25.4902C22.9283 25.3026 23.1099 25.1614 23.3262 25.0664C23.8569 24.9438 24.3816 24.8025 24.9004 24.6425C24.9699 24.4538 25.0505 24.2721 25.1426 24.0976C24.7916 23.6248 24.4889 23.1203 24.2344 22.584C24.1489 22.2847 24.1892 22.0021 24.3555 21.7363C24.9849 21.0663 25.6509 20.4406 26.3535 19.8593C27.1577 19.9077 27.8642 20.2104 28.4727 20.7675C28.6019 20.6839 28.7432 20.6233 28.8965 20.5859C29.1605 20.0778 29.3421 19.5329 29.4414 18.9511C29.5621 18.7304 29.7035 18.5285 29.8652 18.3457ZM31.1973 20.2832C31.3587 20.2832 31.5202 20.2832 31.6816 20.2832C31.7438 20.774 31.8446 21.2583 31.9844 21.7363C32.7195 22.3157 33.5471 22.7193 34.4668 22.9472C35.0525 22.7364 35.6177 22.5143 36.1621 22.2812C36.2174 22.3313 36.2579 22.3919 36.2832 22.4629C35.9422 22.9429 35.7 23.4677 35.5566 24.0371C35.7845 24.9568 36.1881 25.7843 36.7676 26.5195C37.2455 26.6592 37.7299 26.7601 38.2207 26.8222C38.2207 26.9836 38.2207 27.1452 38.2207 27.3066C37.7299 27.3687 37.2455 27.4696 36.7676 27.6093C36.1881 28.3445 35.7845 29.1721 35.5566 30.0918C35.7675 30.6775 35.9896 31.2426 36.2227 31.7871C36.1725 31.8424 36.112 31.8829 36.041 31.9082C35.561 31.5672 35.0362 31.325 34.4668 31.1816C33.5471 31.4095 32.7195 31.8131 31.9844 32.3925C31.8446 32.8705 31.7438 33.3549 31.6816 33.8457C31.5202 33.8457 31.3587 33.8457 31.1973 33.8457C31.1351 33.3549 31.0343 32.8705 30.8945 32.3925C30.1594 31.8131 29.3318 31.4095 28.4121 31.1816C27.8264 31.3924 27.2612 31.6145 26.7168 31.8476C26.6615 31.7975 26.621 31.7369 26.5957 31.666C26.9367 31.186 27.1789 30.6611 27.3223 30.0918C27.0944 29.1721 26.6908 28.3445 26.1113 27.6093C25.6334 27.4696 25.149 27.3687 24.6582 27.3066C24.6582 27.1452 24.6582 26.9836 24.6582 26.8222C25.149 26.7601 25.6334 26.6592 26.1113 26.5195C26.6908 25.7843 27.0944 24.9568 27.3223 24.0371C27.1114 23.4513 26.8894 22.8862 26.6562 22.3418C26.7064 22.2864 26.7669 22.246 26.8379 22.2207C27.3179 22.5617 27.8427 22.8039 28.4121 22.9472C29.3318 22.7193 30.1594 22.3157 30.8945 21.7363C31.0343 21.2583 31.1351 20.774 31.1973 20.2832ZM31.0762 26.2168C32.2084 26.2004 32.5314 26.705 32.0449 27.7304C31.0103 28.1327 30.5461 27.7896 30.6523 26.7011C30.7359 26.4771 30.8771 26.3156 31.0762 26.2168Z" fill="#2690EE"/>
<path opacity="0.922" fill-rule="evenodd" clip-rule="evenodd" d="M14.0019 20.1621C14.4719 20.3164 14.916 20.5383 15.334 20.8281C15.5552 20.937 15.7166 21.0985 15.8183 21.3125C12.838 26.4636 12.3335 31.8523 14.3047 37.4785C14.7617 38.5338 15.2663 39.5631 15.8183 40.5664C15.3355 41.0214 14.7906 41.4047 14.1836 41.7168C12.066 38.4502 11.0367 34.8577 11.0957 30.9395C11.0789 27.0755 12.0476 23.4831 14.0019 20.1621Z" fill="#2690EE"/>
<path opacity="0.928" fill-rule="evenodd" clip-rule="evenodd" d="M8.31055 20.7676C8.9789 21.0004 9.58437 21.3234 10.127 21.7363C6.58749 31.1217 8.12135 39.5579 14.7285 47.0449C14.2845 47.5696 13.8001 48.054 13.2754 48.498C6.85224 41.4135 4.81383 33.2194 7.16016 23.916C7.48509 22.8399 7.86854 21.7903 8.31055 20.7676Z" fill="#2690EE"/>
<path opacity="0.932" fill-rule="evenodd" clip-rule="evenodd" d="M30.5918 24.1582C32.3921 23.8569 33.6233 24.543 34.2852 26.2168C34.6463 28.0182 33.9802 29.2493 32.2871 29.9101C30.4857 30.2712 29.2546 29.6052 28.5938 27.9121C28.2482 26.0997 28.9142 24.8483 30.5918 24.1582ZM31.0762 26.2168C30.8771 26.3156 30.7359 26.4771 30.6523 26.7011C30.5461 27.7897 31.0103 28.1327 32.0449 27.7304C32.5314 26.705 32.2084 26.2004 31.0762 26.2168Z" fill="#2690EE"/>
<path opacity="0.926" fill-rule="evenodd" clip-rule="evenodd" d="M55.7793 25.8535C55.9394 25.8329 56.0807 25.8732 56.2031 25.9746C57.6962 34.4161 55.5973 41.8029 49.9062 48.1347C49.3653 47.7151 48.8608 47.251 48.3926 46.7422C53.602 40.8578 55.5395 34.0161 54.2051 26.2168C54.7542 26.1396 55.2789 26.0185 55.7793 25.8535Z" fill="#2690EE"/>
<path opacity="0.923" fill-rule="evenodd" clip-rule="evenodd" d="M50.9355 26.8223C51.1718 26.7892 51.3534 26.8699 51.4805 27.0645C52.5854 33.6256 51.0112 39.4381 46.7578 44.502C46.4292 44.8714 46.0659 45.1944 45.668 45.4707C45.123 45.0872 44.6589 44.6231 44.2754 44.0781C48.8256 39.3466 50.5209 33.736 49.3613 27.2461C49.9113 27.1411 50.436 26.9999 50.9355 26.8223Z" fill="#2690EE"/>
<path opacity="0.947" fill-rule="evenodd" clip-rule="evenodd" d="M24.1738 36.7519C28.6583 36.3593 31.8673 38.1757 33.8008 42.2011C34.078 42.9467 34.2596 43.7137 34.3457 44.5019C34.6067 44.4864 34.8489 44.547 35.0723 44.6836C35.9603 45.5715 36.8484 46.4596 37.7363 47.3476C40.8038 47.4082 43.8714 47.4284 46.9395 47.4082C46.9395 48.054 46.9395 48.6999 46.9395 49.3457C43.5486 49.3659 40.158 49.3457 36.7676 49.2851C35.7621 48.4009 34.7934 47.4725 33.8613 46.5C32.166 46.4192 30.4707 46.4192 28.7754 46.5C29.3032 47.6333 30.1914 48.2387 31.4395 48.3164C32.2468 48.3567 33.054 48.3971 33.8613 48.4375C34.0833 48.498 34.2246 48.6393 34.2852 48.8613C34.3841 49.2808 34.3437 49.6845 34.1641 50.0722C32.8083 51.4684 31.4157 52.8207 29.9863 54.1289C29.6231 54.2096 29.2598 54.2096 28.8965 54.1289C25.1656 52.9692 21.4319 51.8188 17.6953 50.6777C17.1988 50.8914 16.8155 51.2346 16.5449 51.707C21.4578 53.8157 26.4024 55.8541 31.3789 57.8222C33.1958 57.0046 34.992 56.1368 36.7676 55.2187C40.158 55.1582 43.5486 55.1379 46.9395 55.1582C46.9395 55.804 46.9395 56.4499 46.9395 57.0957C43.7908 57.0754 40.6423 57.0957 37.4942 57.1562C35.6374 58.0846 33.7806 59.0129 31.9238 59.9414C31.6009 60.0221 31.278 60.0221 30.9551 59.9414C25.375 57.6642 19.8047 55.3634 14.2442 53.039C14.0106 52.6447 13.95 52.2209 14.0625 51.7675C14.5066 51.0813 14.9505 50.3952 15.3945 49.7089C15.9111 49.0772 16.5771 48.7544 17.3926 48.7402C16.09 44.5225 17.1395 41.031 20.541 38.2656C21.6662 37.5204 22.8772 37.0158 24.1738 36.7519ZM24.416 38.8105C27.5051 38.4683 29.8665 39.5985 31.5 42.2011C31.8651 42.8909 32.1275 43.6174 32.2871 44.3808C30.5528 44.4817 28.8172 44.5422 27.0801 44.5625C26.8581 44.623 26.7168 44.7643 26.6563 44.9863C26.5185 47.9571 27.911 49.7534 30.834 50.375C30.3093 50.8997 29.7845 51.4245 29.2598 51.9492C26.2617 51.1386 23.2748 50.2506 20.2988 49.2851C19.7912 48.8575 19.448 48.3126 19.2695 47.6503C18.3477 43.9536 19.5384 41.1887 22.8418 39.3554C23.3738 39.1531 23.8985 38.9714 24.416 38.8105Z" fill="#2690EE"/>
<path opacity="0.918" fill-rule="evenodd" clip-rule="evenodd" d="M24.5371 40.627C25.4339 40.5848 26.3219 40.6454 27.2012 40.8086C27.4573 40.8761 27.6995 40.9771 27.9277 41.1114C28.0626 41.2595 28.0828 41.4209 27.9883 41.5957C27.6616 42.064 27.3588 42.5484 27.0801 43.0489C25.3326 42.2656 23.9803 42.7097 23.0234 44.3809C22.6895 45.442 22.8308 46.431 23.4473 47.3477C23.0451 47.893 22.5607 48.3571 21.9941 48.7403C20.794 47.3288 20.4508 45.7143 20.9648 43.8965C21.6043 42.1867 22.7952 41.0968 24.5371 40.627Z" fill="#2690EE"/>
</svg>
