<svg width="63" height="62" viewBox="0 0 63 62" fill="none" xmlns="http://www.w3.org/2000/svg">
<rect x="28.5" y="29" width="32" height="32" rx="8" fill="#2690EE" fill-opacity="0.18"/>
<path opacity="0.982" fill-rule="evenodd" clip-rule="evenodd" d="M21.752 1.87695C28.2104 1.85677 34.6688 1.87695 41.127 1.9375C42.0755 2.24024 42.7012 2.86589 43.0039 3.81445C43.0645 7.04337 43.0847 10.2725 43.0645 13.502C44.679 13.502 46.2937 13.502 47.9082 13.502C47.9082 14.1477 47.9082 14.7937 47.9082 15.4395C37.3326 15.4192 26.7571 15.4395 16.1816 15.5C16.5918 16.9047 16.8138 18.3377 16.8477 19.7988C16.5651 20.364 16.2825 20.929 16 21.4941C15.9395 22.7044 15.9194 23.9153 15.9395 25.127C17.554 25.127 19.1687 25.127 20.7832 25.127C20.763 23.3505 20.7832 21.5744 20.8438 19.7988C20.889 19.6879 20.9496 19.5869 21.0254 19.4961C23.1937 19.3177 25.3734 19.2572 27.5645 19.3145C27.5883 18.6022 27.7295 17.9159 27.9883 17.2559C28.2489 17.0881 28.5314 16.9671 28.8359 16.8926C30.2736 17.1326 31.7065 17.3949 33.1348 17.6797C33.539 17.9038 33.7004 18.247 33.6191 18.709C36.6494 19.1448 39.6767 19.609 42.7012 20.1016C45.3172 20.8205 47.0125 22.4755 47.7871 25.0664C50.7334 25.127 53.68 25.1472 56.627 25.127C56.627 21.8977 56.627 18.6687 56.627 15.4395C54.3262 15.4395 52.0254 15.4395 49.7246 15.4395C49.7246 14.7937 49.7246 14.1477 49.7246 13.502C52.51 13.4817 55.2952 13.502 58.0801 13.5625C58.302 13.623 58.4434 13.7644 58.5039 13.9863C58.5847 18.1843 58.5847 22.3821 58.5039 26.5801C58.4434 26.802 58.302 26.9434 58.0801 27.0039C57.1517 27.0442 56.2234 27.0847 55.2949 27.125C56.0989 27.3351 56.8052 27.7186 57.4141 28.2754C57.5936 28.6631 57.6341 29.0669 57.5352 29.4863C56.4876 30.6348 55.418 31.7651 54.3262 32.877C54.42 33.1161 54.5816 33.2171 54.8106 33.1797C55.8636 32.0861 56.9534 31.0367 58.0801 30.0313C58.8825 29.817 59.4678 30.0793 59.8359 30.8184C60.1054 31.2762 60.3071 31.7606 60.4414 32.2715C60.8569 34.5763 60.2514 36.5542 58.625 38.2051C58.5645 39.0113 58.5444 39.8187 58.5645 40.627C59.0505 40.6068 59.5349 40.6271 60.0176 40.6875C60.2395 40.748 60.3809 40.8894 60.4414 41.1113C60.5222 47.2468 60.5222 53.3821 60.4414 59.5176C60.3961 59.6285 60.3356 59.7295 60.2598 59.8203C50.6627 59.9613 41.056 60.0218 31.4395 60.002C21.8229 60.0218 12.2161 59.9613 2.61914 59.8203C2.54336 59.7295 2.48282 59.6285 2.4375 59.5176C2.35677 53.3821 2.35677 47.2468 2.4375 41.1113C2.49805 40.8894 2.63933 40.748 2.86133 40.6875C4.3139 40.627 5.76702 40.6067 7.22071 40.627C7.20077 40.2615 7.22095 39.8982 7.28125 39.5371C7.68638 38.6042 7.96894 37.6355 8.12891 36.6309C8.16927 35.541 8.20964 34.4512 8.25 33.3613C8.31055 33.1394 8.45183 32.998 8.67383 32.9375C9.15654 32.8771 9.64091 32.8569 10.127 32.877C10.127 30.9395 10.127 29.002 10.127 27.0645C8.83529 27.0645 7.54363 27.0645 6.25196 27.0645C6.25196 30.9395 6.25196 34.8145 6.25196 38.6895C5.60613 38.6895 4.96029 38.6895 4.31446 38.6895C4.25473 30.3644 4.31528 22.0492 4.4961 13.7441C4.58697 13.6683 4.68789 13.6078 4.79883 13.5625C9.80388 13.502 14.809 13.4817 19.8145 13.502C19.7942 10.2725 19.8145 7.04337 19.875 3.81445C20.0461 3.43165 20.248 3.06837 20.4805 2.72461C20.8811 2.39416 21.3049 2.1116 21.752 1.87695ZM22.7207 3.81445C28.5333 3.79427 34.3458 3.81445 40.1582 3.875C40.4944 3.88296 40.7567 4.02424 40.9453 4.29883C41.1132 5.42091 41.1737 6.55111 41.127 7.68946C34.6687 7.68946 28.2102 7.68946 21.752 7.68946C21.7052 6.55111 21.7658 5.42091 21.9336 4.29883C22.1506 4.04114 22.4129 3.87969 22.7207 3.81445ZM21.752 9.62696C22.3977 9.62696 23.0437 9.62696 23.6895 9.62696C23.6895 10.9186 23.6895 12.2102 23.6895 13.502C23.0437 13.502 22.3977 13.502 21.752 13.502C21.752 12.2102 21.752 10.9186 21.752 9.62696ZM25.627 9.62696C29.502 9.62696 33.377 9.62696 37.252 9.62696C37.252 10.9186 37.252 12.2102 37.252 13.502C33.377 13.502 29.502 13.502 25.627 13.502C25.627 12.2102 25.627 10.9186 25.627 9.62696ZM39.1895 9.62696C39.8353 9.62696 40.4812 9.62696 41.127 9.62696C41.127 10.9186 41.127 12.2102 41.127 13.502C40.4812 13.502 39.8353 13.502 39.1895 13.502C39.1895 12.2102 39.1895 10.9186 39.1895 9.62696ZM6.25196 15.4395C7.46357 15.4194 8.67451 15.4395 9.88477 15.5C9.47462 16.9047 9.25261 18.3377 9.21875 19.7988C9.5013 20.364 9.78386 20.929 10.0664 21.4941C10.1269 22.7044 10.1471 23.9153 10.127 25.127C8.83529 25.127 7.54363 25.127 6.25196 25.127C6.25196 21.8977 6.25196 18.6687 6.25196 15.4395ZM11.9434 15.4395C12.6699 15.4395 13.3965 15.4395 14.123 15.4395C14.3494 16.652 14.5916 17.8629 14.8496 19.0723C14.6207 19.6513 14.3583 20.2164 14.0625 20.7676C14.002 24.8039 13.9817 28.8403 14.002 32.877C13.3562 32.877 12.7102 32.877 12.0645 32.877C12.0846 28.8403 12.0645 24.8039 12.0039 20.7676C11.7081 20.2164 11.4457 19.6513 11.2168 19.0723C11.4748 17.8629 11.717 16.652 11.9434 15.4395ZM29.6231 19.1934C30.2555 19.1977 30.861 19.3188 31.4395 19.5566C31.1177 21.366 30.8352 23.1824 30.5918 25.0059C29.9805 24.9644 29.3751 24.8838 28.7754 24.7637C29.0579 22.9069 29.3405 21.0501 29.6231 19.1934ZM33.2559 20.7676C36.5528 21.1556 39.8223 21.7005 43.0645 22.4023C44.7302 23.2523 45.6586 24.6046 45.8496 26.459C41.5714 25.7988 37.2928 25.1328 33.0137 24.4609C32.8831 24.3793 32.8024 24.2582 32.7715 24.0977C32.9726 22.9922 33.1342 21.8822 33.2559 20.7676ZM22.7207 21.252C24.2142 21.252 25.7077 21.252 27.2012 21.252C27.0366 22.4239 26.855 23.5944 26.6563 24.7637C26.5755 25.2077 26.5755 25.6517 26.6563 26.0957C26.7168 26.3177 26.8581 26.459 27.0801 26.5195C27.5572 26.6595 28.0416 26.7605 28.5332 26.8223C28.5332 31.4238 28.5332 36.0254 28.5332 40.627C26.5957 40.627 24.6582 40.627 22.7207 40.627C22.7207 39.9812 22.7207 39.3352 22.7207 38.6895C23.3665 38.6895 24.0124 38.6895 24.6582 38.6895C24.6582 38.0437 24.6582 37.3977 24.6582 36.752C24.0124 36.752 23.3665 36.752 22.7207 36.752C22.7207 36.1062 22.7207 35.4602 22.7207 34.8145C23.3665 34.8145 24.0124 34.8145 24.6582 34.8145C24.6582 34.1687 24.6582 33.5227 24.6582 32.877C24.0124 32.877 23.3665 32.877 22.7207 32.877C22.7207 32.2312 22.7207 31.5852 22.7207 30.9395C23.3665 30.9395 24.0124 30.9395 24.6582 30.9395C24.6582 30.2937 24.6582 29.6477 24.6582 29.002C24.0124 29.002 23.3665 29.002 22.7207 29.002C22.7207 26.4187 22.7207 23.8352 22.7207 21.252ZM32.4082 26.459C33.0269 26.5151 33.6323 26.6361 34.2246 26.8223C33.6748 29.9195 33.1905 33.0275 32.7715 36.1465C32.3446 36.1278 32.0015 36.2893 31.7422 36.6309C31.4416 37.9497 31.2197 39.2817 31.0762 40.627C30.8743 40.627 30.6726 40.627 30.4707 40.627C30.4707 36.1465 30.4707 31.666 30.4707 27.1855C30.8036 27.1582 31.1266 27.1985 31.4395 27.3066C31.9173 27.1916 32.2402 26.909 32.4082 26.459ZM15.9395 27.0645C17.554 27.0645 19.1687 27.0645 20.7832 27.0645C20.7832 31.5852 20.7832 36.1062 20.7832 40.627C20.1374 40.627 19.4915 40.627 18.8457 40.627C18.8657 40.2615 18.8455 39.8982 18.7852 39.5371C18.38 38.6042 18.0975 37.6355 17.9375 36.6309C17.8972 35.541 17.8567 34.4512 17.8164 33.3613C17.7559 33.1394 17.6145 32.998 17.3926 32.9375C16.9099 32.8771 16.4255 32.8569 15.9395 32.877C15.9395 30.9395 15.9395 29.002 15.9395 27.0645ZM36.2832 27.0645C37.4522 27.2459 38.6227 27.4275 39.7949 27.6094C39.8626 27.6972 39.9029 27.798 39.916 27.9121C39.4245 30.9822 38.9199 34.05 38.4023 37.1152C37.1771 36.8875 35.946 36.6654 34.709 36.4492C35.2403 33.3217 35.765 30.1935 36.2832 27.0645ZM47.9082 27.0645C49.4829 27.0442 51.0571 27.0645 52.6309 27.125C50.1081 27.7102 48.554 29.2644 47.9688 31.7871C47.9284 32.5944 47.888 33.4017 47.8477 34.209C47.8082 34.7716 47.6466 35.2963 47.3633 35.7832C45.7688 37.3776 44.1745 38.972 42.5801 40.5664C42.0568 40.6268 41.5321 40.6471 41.0059 40.627C41.1936 39.7065 41.2541 38.7781 41.1875 37.8418C41.0344 37.5867 40.8125 37.4656 40.5215 37.4785C40.9735 34.2821 41.478 31.0932 42.0352 27.9121C43.6476 28.2077 45.2622 28.4903 46.8789 28.7598C47.7412 28.531 48.0843 27.9659 47.9082 27.0645ZM53.8418 29.002C54.2077 29.0388 54.571 29.0993 54.9316 29.1836C53.9427 30.1726 52.9538 31.1614 51.9648 32.1504C51.7227 32.6348 51.7227 33.1191 51.9648 33.6035C52.6309 34.2695 53.2969 34.9355 53.9629 35.6016C54.3506 35.7811 54.7544 35.8216 55.1738 35.7227C56.2803 34.7374 57.3499 33.7081 58.3828 32.6348C58.765 35.0387 57.8165 36.6735 55.5371 37.5391C54.451 37.6663 53.3612 37.7471 52.2676 37.7812C51.502 37.9421 50.8158 38.265 50.209 38.75C49.6035 39.3555 48.9981 39.9609 48.3926 40.5664C47.4642 40.6472 46.5359 40.6472 45.6074 40.5664C46.9272 39.3276 48.1584 38.0158 49.3008 36.6309C49.4967 36.1988 49.6581 35.7547 49.7852 35.2988C49.8193 34.2052 49.9001 33.1154 50.0273 32.0293C50.6477 30.1757 51.9192 29.1666 53.8418 29.002ZM10.127 34.8145C12.0645 34.8145 14.002 34.8145 15.9395 34.8145C15.9194 35.8244 15.9395 36.8335 16 37.8418C16.2077 38.5398 16.4499 39.2259 16.7266 39.9004C16.7865 40.1393 16.8067 40.3815 16.7871 40.627C14.2845 40.627 11.7819 40.627 9.2793 40.627C9.25967 40.3815 9.27985 40.1393 9.33985 39.9004C9.61658 39.2259 9.85877 38.5398 10.0664 37.8418C10.1269 36.8335 10.1471 35.8244 10.127 34.8145ZM33.4981 38.4473C35.2786 38.67 37.0547 38.9324 38.8262 39.2344C38.9492 39.2972 39.0299 39.3982 39.0684 39.5371C38.9712 39.8942 38.9308 40.2575 38.9473 40.627C37.0098 40.627 35.0723 40.627 33.1348 40.627C33.2335 39.8958 33.3546 39.1692 33.4981 38.4473ZM56.2637 39.416C56.3848 39.416 56.5059 39.416 56.627 39.416C56.627 39.8196 56.627 40.2233 56.627 40.627C54.8908 40.6472 53.1551 40.627 51.4199 40.5664C51.7472 40.2008 52.1508 39.9586 52.6309 39.8398C53.6752 39.7029 54.7246 39.6221 55.7793 39.5977C55.968 39.5722 56.1294 39.5117 56.2637 39.416ZM4.31446 42.5645C22.3977 42.5645 40.4812 42.5645 58.5645 42.5645C58.5645 47.7312 58.5645 52.8977 58.5645 58.0645C40.4812 58.0645 22.3977 58.0645 4.31446 58.0645C4.31446 54.1895 4.31446 50.3145 4.31446 46.4395C7.54363 46.4395 10.7728 46.4395 14.002 46.4395C13.9817 48.2159 14.002 49.992 14.0625 51.7676C14.123 51.9895 14.2644 52.1309 14.4863 52.1914C17.3926 52.2722 20.2988 52.2722 23.2051 52.1914C23.427 52.1309 23.5684 51.9895 23.6289 51.7676C23.6895 50.6381 23.7096 49.5078 23.6895 48.377C23.0437 48.377 22.3977 48.377 21.752 48.377C21.752 49.0227 21.752 49.6687 21.752 50.3145C19.8145 50.3145 17.877 50.3145 15.9395 50.3145C15.9395 49.0227 15.9395 47.7312 15.9395 46.4395C26.2727 46.4395 36.6062 46.4395 46.9395 46.4395C46.9395 47.7312 46.9395 49.0227 46.9395 50.3145C45.002 50.3145 43.0645 50.3145 41.127 50.3145C41.127 49.6687 41.127 49.0227 41.127 48.377C40.4812 48.377 39.8353 48.377 39.1895 48.377C39.1694 49.5078 39.1895 50.6381 39.25 51.7676C39.3106 51.9895 39.4519 52.1309 39.6738 52.1914C42.5801 52.2722 45.4863 52.2722 48.3926 52.1914C48.6145 52.1309 48.7559 51.9895 48.8164 51.7676C48.877 49.992 48.8972 48.2159 48.877 46.4395C51.4603 46.4395 54.0437 46.4395 56.627 46.4395C56.627 45.7937 56.627 45.1477 56.627 44.502C39.1895 44.502 21.752 44.502 4.31446 44.502C4.31446 43.8562 4.31446 43.2102 4.31446 42.5645Z" fill="#2690EE"/>
</svg>
