<svg width="63" height="62" viewBox="0 0 63 62" fill="none" xmlns="http://www.w3.org/2000/svg">
<g clip-path="url(#clip0_155_381)">
<rect x="21.5" y="14" width="32" height="32" rx="8" fill="#2690EE" fill-opacity="0.18"/>
<path opacity="0.927" fill-rule="evenodd" clip-rule="evenodd" d="M23.8105 -0.0605469C24.4968 -0.0605469 25.1829 -0.0605469 25.8691 -0.0605469C27.8253 0.653498 29.8031 1.3397 31.8027 1.99805C33.7503 1.40945 35.6878 0.783793 37.6152 0.121094C39.47 -0.151534 40.9837 0.433752 42.1563 1.87695C43.211 3.44152 44.2806 4.99555 45.3652 6.53906C47.2999 7.36438 49.2779 8.09094 51.2988 8.71875C52.9279 9.54288 53.7756 10.8749 53.8418 12.7148C53.7638 13.6796 53.7235 14.6483 53.7207 15.6211C53.7059 16.6591 53.7665 17.6884 53.9023 18.709C54.9048 20.236 55.9542 21.7295 57.0508 23.1895C57.9275 24.5811 58.0486 26.0342 57.4141 27.5488C56.343 29.1257 55.2128 30.6596 54.0234 32.1504C53.7981 32.4396 53.6367 32.7624 53.5391 33.1191C53.4369 35.2172 53.3561 37.3162 53.2969 39.416C53.0192 40.8408 52.2321 41.8701 50.9356 42.5039C49.1248 43.0878 47.3084 43.6528 45.4863 44.1992C45.2025 44.3006 44.9603 44.4621 44.7598 44.6836C45.2697 45.4408 45.734 46.2279 46.1523 47.0449C46.2428 48.2011 45.7382 48.5846 44.6387 48.1953C44.2096 47.6 43.8261 46.9743 43.4883 46.3184C42.7027 47.2438 41.9762 48.2125 41.3086 49.2246C40.0124 50.6742 38.418 51.1384 36.5254 50.6172C35.9948 50.4265 35.4699 50.265 34.9512 50.1328C36.6025 53.0531 38.2978 55.9391 40.0371 58.791C40.8386 57.208 41.6863 55.6538 42.5801 54.1289C42.7617 54.0684 42.9434 54.0078 43.125 53.9473C44.5959 54.0764 46.0693 54.1974 47.5449 54.3105C47.7063 54.2702 47.8679 54.2298 48.0293 54.1895C47.375 53.1028 46.7696 51.9927 46.2129 50.8594C46.5762 49.7445 47.2019 49.5628 48.0898 50.3145C49.0086 51.8691 49.8966 53.4433 50.7539 55.0371C50.8347 55.3601 50.8347 55.6829 50.7539 56.0059C50.6121 56.1745 50.4305 56.2755 50.209 56.3086C48.03 56.2172 45.8503 56.1364 43.6699 56.0664C42.7383 58.071 41.7293 60.0287 40.6426 61.9395C40.2793 61.9395 39.916 61.9395 39.5527 61.9395C37.0411 57.684 34.5587 53.4054 32.1055 49.1035C31.7459 48.7733 31.3422 48.6925 30.8945 48.8613C28.4179 53.2924 25.8549 57.6518 23.2051 61.9395C22.8821 61.9395 22.5593 61.9395 22.2363 61.9395C21.167 60.0432 20.1579 58.1057 19.209 56.127C18.9466 56.0866 18.6843 56.0462 18.4219 56.0059C16.4649 56.1659 14.5072 56.2668 12.5488 56.3086C11.9491 55.9889 11.8078 55.5248 12.125 54.916C13.013 53.3821 13.9011 51.8483 14.7891 50.3145C15.3542 49.6687 15.9192 49.6687 16.4844 50.3145C16.5651 50.6374 16.5651 50.9602 16.4844 51.2832C15.9144 52.2821 15.329 53.2711 14.7285 54.25C16.3864 54.2246 18.0413 54.1237 19.6934 53.9473C19.8989 53.9956 20.1006 54.0561 20.2988 54.1289C21.1726 55.6948 22.0001 57.2892 22.7812 58.9121C24.5983 55.9244 26.3541 52.897 28.0488 49.8301C27.9883 49.7898 27.9277 49.7493 27.8672 49.709C26.7416 50.2055 25.571 50.5283 24.3555 50.6777C23.0853 50.6585 21.9955 50.2144 21.0859 49.3457C20.4886 48.4319 19.8629 47.5439 19.209 46.6816C18.8903 47.2182 18.527 47.7228 18.1191 48.1953C17.0098 48.4991 16.5455 48.0753 16.7266 46.9238C17.1047 46.1873 17.5286 45.481 17.998 44.8047C17.6357 44.1986 17.1109 43.795 16.4238 43.5938C14.7599 43.0526 13.1049 42.4874 11.459 41.8984C9.93202 41.0469 9.12472 39.7351 9.03711 37.9629C9.17462 36.1092 9.19481 34.2525 9.09766 32.3926C9.00991 32.096 8.88882 31.8134 8.73437 31.5449C7.6551 30.0727 6.60562 28.5791 5.58594 27.0645C4.83066 25.588 4.87102 24.1348 5.70703 22.7051C7.01194 21.0772 8.22287 19.3819 9.33984 17.6191C9.43938 15.4805 9.52012 13.3413 9.58203 11.2012C9.86711 9.86625 10.6139 8.87731 11.8223 8.23438C13.9 7.59559 15.9586 6.9094 17.998 6.17578C19.2418 4.68996 20.3922 3.13593 21.4492 1.51367C22.0983 0.760556 22.8854 0.235816 23.8105 -0.0605469ZM24.7793 1.75586C26.6615 2.29579 28.5182 2.92144 30.3496 3.63281C31.1965 3.90468 32.0442 3.94504 32.8926 3.75391C34.5879 3.1888 36.2832 2.6237 37.9785 2.05859C38.7166 1.90525 39.4028 2.02635 40.0371 2.42188C41.3395 4.3 42.6715 6.15677 44.0332 7.99219C44.3967 8.29529 44.8003 8.53747 45.2441 8.71875C46.89 9.30776 48.545 9.87287 50.209 10.4141C51.263 10.8459 51.8281 11.633 51.9043 12.7754C51.8272 13.7813 51.7867 14.7904 51.7832 15.8027C51.7701 16.8996 51.8307 17.9894 51.9648 19.0723C52.0931 19.4498 52.2545 19.8131 52.4492 20.1621C53.569 21.7153 54.6588 23.2895 55.7188 24.8848C55.9704 25.6059 55.8897 26.292 55.4766 26.9434C54.1061 28.6346 52.8548 30.4105 51.7227 32.2715C51.5304 34.5655 51.4093 36.8663 51.3594 39.1738C51.1492 39.9896 50.6446 40.5346 49.8457 40.8086C48.0236 41.355 46.2072 41.92 44.3965 42.5039C44.0942 42.6347 43.8116 42.7962 43.5488 42.9883C42.2245 44.5545 40.9935 46.1893 39.8555 47.8926C39.2042 48.6748 38.3767 48.9776 37.373 48.8008C35.6777 48.1953 33.9824 47.5898 32.2871 46.9844C31.4384 46.7487 30.5907 46.7487 29.7441 46.9844C28.1296 47.5495 26.5149 48.1145 24.9004 48.6797C23.8015 48.9056 22.9336 48.5626 22.2969 47.6504C21.1994 45.8388 19.9682 44.1233 18.6035 42.5039C18.1529 42.1979 17.6686 41.9557 17.1504 41.7773C15.6075 41.2765 14.0736 40.7518 12.5488 40.2031C11.5254 39.7512 11.0007 38.9641 10.9746 37.8418C11.0518 36.8359 11.0922 35.8268 11.0957 34.8145C11.1088 33.7176 11.0483 32.6277 10.9141 31.5449C9.88253 29.7863 8.75231 28.091 7.52344 26.459C6.92471 25.6542 6.84399 24.8065 7.28125 23.916C8.26096 22.5623 9.27007 21.2303 10.3086 19.9199C10.6853 19.4492 10.9679 18.9245 11.1562 18.3457C11.3454 16.0919 11.4665 13.8316 11.5195 11.5645C11.7223 10.7966 12.1865 10.2516 12.9121 9.92969C14.6 9.38048 16.2953 8.85574 17.998 8.35547C18.8601 8.07518 19.5665 7.57064 20.1172 6.8418C21.0859 5.46941 22.0547 4.097 23.0234 2.72461C23.49 2.16089 24.0753 1.83797 24.7793 1.75586Z" fill="#2690EE"/>
<path opacity="0.93" fill-rule="evenodd" clip-rule="evenodd" d="M29.8652 5.63084C34.3162 5.34588 38.4132 6.39537 42.1562 8.77928C42.6578 9.85238 42.3148 10.3973 41.127 10.414C35.1472 6.84981 29.0522 6.64798 22.8418 9.80858C19.163 11.9011 16.5392 14.9082 14.9707 18.8301C16.8682 18.8098 18.7654 18.8301 20.6621 18.8906C20.8497 19.0376 20.9909 19.2193 21.0859 19.4355C21.1068 19.9648 21.1673 20.4895 21.2676 21.0097C22.6189 20.0313 23.9913 19.0828 25.3848 18.164C27.2478 16.7164 28.0753 14.799 27.8672 12.4121C28.4955 10.8565 29.6459 10.2712 31.3184 10.6562C31.8922 10.7917 32.3564 11.0945 32.7109 11.5644C33.9392 14.5033 34.1612 17.5104 33.377 20.5859C36.1621 20.6262 38.9473 20.6667 41.7324 20.707C43.5575 21.3495 44.2639 22.621 43.8516 24.5215C43.7019 25.1037 43.3992 25.5881 42.9434 25.9746C43.6105 27.4593 43.3683 28.7711 42.2168 29.9101C42.982 31.4132 42.7398 32.7452 41.4902 33.9062C42.3516 36.0595 41.6653 37.5126 39.4316 38.2656C34.9108 38.3464 30.3899 38.3464 25.8691 38.2656C25.0341 37.9531 24.2267 37.5898 23.4473 37.1758C22.6881 36.9838 21.9212 36.8425 21.1465 36.7519C21.1666 37.4393 21.1464 38.1255 21.0859 38.8105C20.9682 39.0291 20.8269 39.231 20.6621 39.416C24.9618 42.6401 29.7651 43.7501 35.0723 42.7461C42.5693 40.7386 47.1911 35.9554 48.9375 28.3965C49.8651 22.2185 48.1294 16.9307 43.7305 12.5332C43.4297 11.3001 43.8939 10.8359 45.123 11.1406C50.4123 16.5329 52.2086 22.9307 50.5117 30.334C48.1514 37.982 43.0856 42.7652 35.3145 44.6836C26.5167 45.9847 19.6345 42.9776 14.668 35.6621C10.7574 28.8643 10.717 22.0427 14.5469 15.1972C18.1615 9.62564 23.2677 6.43684 29.8652 5.63084ZM30.2285 12.4121C30.0294 12.5109 29.8882 12.6724 29.8047 12.8965C29.9117 15.9318 28.721 18.2931 26.2324 19.9805C24.4552 21.0713 22.78 22.3024 21.207 23.6738C21.1465 27.3872 21.1263 31.1007 21.1465 34.8144C22.9857 34.8701 24.681 35.3747 26.2324 36.3281C30.5515 36.4089 34.8704 36.4089 39.1895 36.3281C39.9978 35.9203 40.1188 35.3551 39.5527 34.6328C38.8702 34.505 38.184 34.3839 37.4941 34.2695C36.8502 33.7101 36.8502 33.1449 37.4941 32.5742C38.3015 32.5339 39.1087 32.4934 39.916 32.4531C40.2003 32.4112 40.4223 32.2699 40.582 32.0293C40.8995 31.3513 40.7179 30.8468 40.0371 30.5156C39.4316 30.4753 38.8262 30.4348 38.2207 30.3945C38.0391 30.2936 37.8977 30.1523 37.7969 29.9707C37.5881 29.3372 37.7697 28.873 38.3418 28.5781C39.2426 28.5696 40.1306 28.4889 41.0059 28.3359C41.524 27.7265 41.4837 27.1613 40.8848 26.6406C39.9488 26.6233 39.0205 26.5425 38.0996 26.3984C37.745 26.004 37.6441 25.5397 37.7969 25.0058C37.9062 24.8604 38.0474 24.7594 38.2207 24.7031C39.3196 24.6928 40.4095 24.612 41.4902 24.4609C42.315 23.8155 42.2746 23.21 41.3691 22.6445C38.1804 22.6042 34.9915 22.5637 31.8027 22.5234C31.3164 22.4181 31.0742 22.1153 31.0762 21.6152C32.1824 18.6778 32.2025 15.7312 31.1367 12.7754C30.9129 12.4677 30.6102 12.3466 30.2285 12.4121ZM14.2441 20.7676C12.789 27.0159 14.1614 32.5457 18.3613 37.3574C18.6329 37.4754 18.9155 37.5158 19.209 37.4785C19.209 31.9082 19.209 26.3379 19.209 20.7676C17.554 20.7676 15.8991 20.7676 14.2441 20.7676Z" fill="#2690EE"/>
<path opacity="0.851" fill-rule="evenodd" clip-rule="evenodd" d="M15.9395 24.4004C17.2154 24.3224 17.6191 24.8673 17.1504 26.0352C15.9448 26.5887 15.3999 26.2053 15.5156 24.8848C15.6823 24.7388 15.8234 24.5774 15.9395 24.4004Z" fill="#2690EE"/>
</g>
<defs>
<clipPath id="clip0_155_381">
<rect width="62" height="62" fill="white" transform="translate(0.5)"/>
</clipPath>
</defs>
</svg>
