<svg width="63" height="62" viewBox="0 0 63 62" fill="none" xmlns="http://www.w3.org/2000/svg">
<g clip-path="url(#clip0_155_430)">
<rect x="4.5" y="29" width="32" height="32" rx="8" fill="#2690EE" fill-opacity="0.18"/>
<path opacity="0.938" fill-rule="evenodd" clip-rule="evenodd" d="M20.9043 -0.0605469C21.9134 -0.0605469 22.9226 -0.0605469 23.9317 -0.0605469C28.0055 0.783025 30.6695 3.2049 31.9238 7.20508C34.4255 7.30596 36.928 7.36651 39.4317 7.38672C41.1993 7.86297 42.1882 9.01336 42.3984 10.8379C42.4792 16.0046 42.4792 21.1712 42.3984 26.3379C41.9619 27.2971 41.3564 27.4182 40.582 26.7012C40.5417 21.4538 40.5013 16.2063 40.4609 10.959C40.3539 10.166 39.9301 9.62103 39.1895 9.32422C36.8487 9.26367 34.5075 9.2435 32.166 9.26367C32.0533 14.5217 29.47 17.8518 24.416 19.2539C21.3109 19.8249 18.546 19.1185 16.1211 17.1348C15.8207 16.0222 16.2445 15.5579 17.3926 15.7422C21.0295 18.2184 24.5412 18.0569 27.9277 15.2578C30.2092 12.7728 30.7944 9.92721 29.6836 6.7207C28.2347 3.65421 25.8128 1.99926 22.418 1.75586C18.2331 2.10571 15.6498 4.32576 14.668 8.41602C14.473 9.99673 14.6547 11.5306 15.2129 13.0176C15.1029 13.7997 14.659 14.1025 13.8809 13.9258C13.6185 13.8249 13.4368 13.6433 13.3359 13.3809C12.8127 12.0576 12.5907 10.6852 12.6699 9.26367C10.3284 9.2435 7.9873 9.26367 5.64649 9.32422C4.95601 9.61058 4.53218 10.1151 4.37501 10.8379C4.25455 26.8694 4.29492 42.8941 4.4961 58.9121C4.87037 59.6141 5.45566 59.9976 6.25196 60.0625C17.2354 60.182 28.2146 60.1417 39.1895 59.9414C39.7786 59.6953 40.1822 59.2715 40.4004 58.6699C36.539 57.19 33.6732 54.6066 31.8027 50.9199C26.4347 50.819 21.0662 50.7585 15.6973 50.7383C15.14 50.4915 14.9179 50.0677 15.0313 49.4668C15.1321 49.2044 15.3138 49.0227 15.5762 48.9219C20.7023 48.8613 25.8286 48.8411 30.9551 48.8613C30.4171 46.8397 30.2152 44.7811 30.3496 42.6855C25.3847 42.7058 20.4198 42.6855 15.4551 42.625C14.7381 41.8506 14.8592 41.2451 15.8184 40.8086C20.7832 40.7683 25.7481 40.7278 30.7129 40.6875C31.3391 38.5066 32.3482 36.5288 33.7402 34.7539C27.6856 34.7136 21.6309 34.6731 15.5762 34.6328C14.9625 34.2716 14.8212 33.7671 15.1524 33.1191C15.2942 32.9505 15.4758 32.8495 15.6973 32.8164C22.3978 32.7761 29.0984 32.7356 35.7988 32.6953C40.4918 29.1349 45.6182 28.368 51.1777 30.3945C57.0801 33.1739 60.1882 37.836 60.502 44.3809C60.4619 47.3061 59.6748 50.0105 58.1406 52.4941C57.6109 53.0852 57.0457 53.1256 56.4453 52.6152C56.3336 52.4295 56.273 52.2276 56.2637 52.0098C56.5801 51.2154 56.9636 50.4485 57.4141 49.709C59.4098 44.6606 58.7237 40.0187 55.3555 35.7832C51.1444 31.3853 46.1594 30.1945 40.4004 32.2109C35.844 34.3068 33.1597 37.8388 32.3477 42.8066C31.9851 49.3698 34.7905 53.9916 40.7637 56.6719C45.6571 58.2917 50.0972 57.4845 54.084 54.25C55.1396 54.1351 55.5634 54.5992 55.3555 55.6426C53.0266 57.7121 50.302 58.9432 47.1817 59.3359C45.5184 59.4473 43.8634 59.3868 42.2168 59.1543C41.8252 60.555 40.9372 61.4834 39.5527 61.9395C28.1296 61.9395 16.7064 61.9395 5.28321 61.9395C3.71597 61.4007 2.76739 60.3109 2.43751 58.6699C2.31745 42.4391 2.35781 26.2126 2.5586 9.99023C3.03105 8.6702 3.93925 7.80237 5.28321 7.38672C7.82714 7.36651 10.3701 7.30596 12.9121 7.20508C14.1628 3.20889 16.8268 0.787009 20.9043 -0.0605469Z" fill="#2690EE"/>
<path opacity="0.919" fill-rule="evenodd" clip-rule="evenodd" d="M22.1152 3.33011C23.028 3.31443 23.4317 3.75845 23.3262 4.66214C23.9742 4.80433 24.5191 5.12725 24.9609 5.63089C25.3826 6.90273 24.9588 7.40729 23.6895 7.14457C23.2286 6.52727 22.6231 6.32544 21.8731 6.5391C21.4744 6.83116 21.3331 7.21463 21.4492 7.68949C22.3961 8.23342 23.385 8.69762 24.416 9.08207C25.8131 10.3961 25.9947 11.8694 24.9609 13.502C24.5739 14.0285 24.0695 14.3918 23.4473 14.5918C23.3969 15.6329 22.8722 16.0567 21.8731 15.8633C21.4952 15.5717 21.3338 15.1883 21.3887 14.7129C20.6466 14.607 19.9806 14.3243 19.3906 13.8653C18.9807 13.0055 19.2229 12.4405 20.1172 12.17C20.5627 12.3019 20.9865 12.4836 21.3887 12.7149C21.8731 12.7956 22.3574 12.7956 22.8418 12.7149C23.7781 12.1522 23.8992 11.466 23.2051 10.6563C22.1148 10.3331 21.1057 9.84869 20.1777 9.20316C19.3279 8.12958 19.227 6.97919 19.875 5.75199C20.2525 5.27316 20.7166 4.90988 21.2676 4.66214C21.2828 4.02179 21.5654 3.57779 22.1152 3.33011Z" fill="#2690EE"/>
<path opacity="0.926" fill-rule="evenodd" clip-rule="evenodd" d="M9.64259 22.9472C11.7082 22.7529 12.8788 23.6812 13.1543 25.7324C12.9176 27.6669 11.8277 28.5751 9.88478 28.457C7.69083 27.7212 7.06519 26.2883 8.00783 24.1582C8.43833 23.5845 8.98325 23.1809 9.64259 22.9472ZM10.0059 24.8847C9.8899 25.0618 9.74862 25.2232 9.58205 25.3691C9.50131 25.571 9.50131 25.7727 9.58205 25.9746C9.96993 26.6571 10.4543 26.7377 11.0352 26.2168C11.3248 25.3134 10.9817 24.8694 10.0059 24.8847Z" fill="#2690EE"/>
<path opacity="0.932" fill-rule="evenodd" clip-rule="evenodd" d="M15.5762 24.7637C22.5594 24.7435 29.5424 24.7637 36.5254 24.8242C36.8906 25.0094 37.052 25.3121 37.0098 25.7324C37.0296 26.1777 36.8277 26.4804 36.4043 26.6406C29.5019 26.7214 22.5996 26.7214 15.6973 26.6406C15.1979 26.5217 14.9557 26.1989 14.9707 25.6719C15.0108 25.2505 15.2126 24.9478 15.5762 24.7637Z" fill="#2690EE"/>
<path opacity="0.926" fill-rule="evenodd" clip-rule="evenodd" d="M9.88476 30.9395C12.0819 30.9366 13.1515 32.0264 13.0937 34.209C12.3596 36.4021 10.9266 37.0278 8.79492 36.0859C7.50355 34.9904 7.24117 33.6786 8.00781 32.1504C8.52113 31.5424 9.14678 31.1388 9.88476 30.9395ZM10.1269 32.877C9.59066 33.1131 9.40902 33.5167 9.58203 34.0879C10.0197 34.684 10.5041 34.7244 11.0352 34.209C11.3401 33.3679 11.0374 32.9238 10.1269 32.877Z" fill="#2690EE"/>
<path opacity="0.932" fill-rule="evenodd" clip-rule="evenodd" d="M45.002 34.5723C45.4186 34.5482 45.8222 34.6087 46.2129 34.7539C48.6348 36.0456 51.0566 37.3372 53.4785 38.6289C53.9191 39.0863 54.1815 39.6312 54.2656 40.2637C54.3464 43.0488 54.3464 45.834 54.2656 48.6192C54.2364 49.465 53.8531 50.0907 53.1152 50.4961C50.8763 51.5954 48.6562 52.7256 46.4551 53.8867C45.8604 54.0674 45.2549 54.1079 44.6387 54.0078C42.2382 52.8279 39.8568 51.617 37.4941 50.375C37.0508 50.0525 36.7481 49.6287 36.5859 49.1035C36.5052 45.9954 36.5052 42.8874 36.5859 39.7793C36.7905 39.1708 37.174 38.7065 37.7363 38.3867C40.1554 37.0766 42.5773 35.8051 45.002 34.5723ZM45.3652 36.5098C43.4756 37.5357 41.5785 38.565 39.6738 39.5977C41.5623 40.6375 43.4797 41.6265 45.4258 42.5645C47.3104 41.6121 49.1873 40.6433 51.0566 39.6582C49.1799 38.5784 47.2828 37.5289 45.3652 36.5098ZM38.4629 41.2324C38.4427 43.695 38.4629 46.1572 38.5234 48.6192C40.4311 49.6437 42.3485 50.6528 44.2754 51.6465C44.4166 49.1853 44.4368 46.7231 44.3359 44.2598C42.3655 43.2645 40.4079 42.2554 38.4629 41.2324ZM52.2676 41.2324C50.3375 42.238 48.4 43.2471 46.4551 44.2598C46.2937 46.722 46.2937 49.1843 46.4551 51.6465C48.4307 50.6992 50.3682 49.69 52.2676 48.6192C52.4281 46.1415 52.4281 43.6793 52.2676 41.2324Z" fill="#2690EE"/>
<path opacity="0.926" fill-rule="evenodd" clip-rule="evenodd" d="M10.2481 38.9316C12.2561 39.1029 13.2047 40.1927 13.0938 42.2012C12.5975 44.0345 11.4067 44.7812 9.5215 44.4414C8.03549 43.8319 7.40985 42.7219 7.64454 41.1113C8.03318 39.7988 8.90102 39.0722 10.2481 38.9316ZM10.2481 40.8691C10.0554 40.9562 9.87372 41.0773 9.70314 41.2324C9.34113 42.2233 9.68422 42.6472 10.7324 42.5039C11.4085 41.733 11.2471 41.1881 10.2481 40.8691Z" fill="#2690EE"/>
<path opacity="0.925" fill-rule="evenodd" clip-rule="evenodd" d="M9.64258 47.045C11.7115 46.8544 12.8821 47.7828 13.1543 49.8301C12.9851 51.5534 12.0365 52.4817 10.3086 52.6153C8.61126 52.4116 7.70306 51.4631 7.58398 49.7696C7.6742 48.3937 8.3604 47.4855 9.64258 47.045ZM10.0059 48.9825C9.30275 49.6853 9.40366 50.2505 10.3086 50.6778C10.8535 50.6172 11.1562 50.3145 11.2168 49.7696C11.0505 49.1388 10.6469 48.8764 10.0059 48.9825Z" fill="#2690EE"/>
</g>
<defs>
<clipPath id="clip0_155_430">
<rect width="62" height="62" fill="white" transform="translate(0.5)"/>
</clipPath>
</defs>
</svg>
