<svg width="24" height="24" viewBox="0 0 24 24" fill="none" xmlns="http://www.w3.org/2000/svg">
    <circle cx="12" cy="12" r="11.5" stroke="white" />
    <g clip-path="url(#clip0_198_958)">
    <path d="M15.7895 7.36841H8.21052C7.8755 7.36841 7.55422 7.50149 7.31733 7.73838C7.08044 7.97527 6.94736 8.29656 6.94736 8.63157V16.6316H17.0526V8.63157C17.0526 8.29656 16.9195 7.97527 16.6826 7.73838C16.4458 7.50149 16.1245 7.36841 15.7895 7.36841ZM8.21052 8.21051H15.7895C15.9011 8.21051 16.0082 8.25487 16.0872 8.33384C16.1662 8.4128 16.2105 8.5199 16.2105 8.63157V8.91241L12.8935 12.2299C12.6562 12.4662 12.3349 12.5989 12 12.5989C11.6651 12.5989 11.3438 12.4662 11.1065 12.2299L7.78946 8.91241V8.63157C7.78946 8.5199 7.83382 8.4128 7.91279 8.33384C7.99175 8.25487 8.09884 8.21051 8.21052 8.21051ZM7.78946 15.7895V10.1053L10.5111 12.8253C10.9064 13.2195 11.4418 13.4408 12 13.4408C12.5582 13.4408 13.0936 13.2195 13.4888 12.8253L16.2105 10.1053V15.7895H7.78946Z" fill="white"/>
    </g>
    <defs>
    <clipPath id="clip0_198_958">
    <rect width="10.1053" height="10.1053" fill="white" transform="translate(6.94736 6.94727)"/>
    </clipPath>
    </defs>
</svg>
