<svg width="62" height="62" viewBox="0 0 62 62" fill="none" xmlns="http://www.w3.org/2000/svg">
<g clip-path="url(#clip0_203_1357)">
<rect x="25" y="26" width="32" height="32" rx="8" fill="#2690EE" fill-opacity="0.18"/>
<path opacity="0.933" fill-rule="evenodd" clip-rule="evenodd" d="M30.2129 -0.0605469C30.6973 -0.0605469 31.1816 -0.0605469 31.666 -0.0605469C39.6411 3.31866 47.6333 6.6891 55.6426 10.0508C56.1323 10.4853 56.4149 11.0302 56.4902 11.6855C56.1736 12.7766 55.7497 13.8261 55.2188 14.834C54.6174 15.3897 53.9109 15.5713 53.0996 15.3789C52.0488 15.0018 51.0195 14.578 50.0117 14.1074C49.9512 15.3984 49.931 16.6901 49.9512 17.9824C52.0101 17.9622 54.0687 17.9824 56.127 18.043C58.2823 18.6242 59.5538 20.0168 59.9414 22.2207C60.0222 32.7155 60.0222 43.2102 59.9414 53.7051C59.5549 55.9079 58.2834 57.3005 56.127 57.8828C54.0687 57.9434 52.0101 57.9636 49.9512 57.9434C49.9713 58.8323 49.9512 59.7203 49.8906 60.6074C49.6936 61.2272 49.3102 61.6712 48.7402 61.9395C48.2559 61.9395 47.7715 61.9395 47.2871 61.9395C45.8868 61.3986 44.4539 60.9143 42.9883 60.4863C41.5227 60.9143 40.0898 61.3986 38.6895 61.9395C38.2051 61.9395 37.7207 61.9395 37.2363 61.9395C36.7143 61.6795 36.3308 61.2759 36.0859 60.7285C36.0254 59.8011 36.0053 58.8726 36.0254 57.9434C30.0917 57.9636 24.1581 57.9434 18.2246 57.8828C17.8776 57.7141 17.7161 57.4316 17.7402 57.0352C17.7199 56.4499 18.0024 56.127 18.5879 56.0664C24.4003 56.0059 30.2128 55.9856 36.0254 56.0059C36.0254 55.3196 36.0254 54.6335 36.0254 53.9473C27.7506 53.9675 19.4759 53.9473 11.2012 53.8867C10.8304 53.7582 10.5277 53.5363 10.293 53.2207C10.0349 52.3826 9.65144 51.6157 9.14258 50.9199C8.45644 50.274 7.64914 49.8502 6.72071 49.6484C6.32024 49.312 6.05786 48.8882 5.9336 48.377C5.85286 41.4343 5.85286 34.4915 5.9336 27.5488C6.18299 26.5729 6.80864 26.028 7.81055 25.9141C8.62582 25.5785 9.25148 25.0336 9.6875 24.2793C9.82517 23.5032 10.1683 22.8372 10.7168 22.2812C10.909 22.1769 11.1108 22.0961 11.3223 22.0391C24.4004 21.9583 37.4785 21.9583 50.5566 22.0391C50.9473 22.1841 51.2903 22.4061 51.5859 22.7051C51.9777 24.5645 53.0876 25.7149 54.916 26.1562C55.479 26.4535 55.8222 26.9177 55.9453 27.5488C56.0261 34.4915 56.0261 41.4343 55.9453 48.377C55.832 48.8258 55.61 49.2094 55.2793 49.5273C54.3792 49.8059 53.5518 50.2297 52.7969 50.7988C52.256 51.5311 51.8523 52.3384 51.5859 53.2207C51.1627 53.732 50.6178 53.9741 49.9512 53.9473C49.9512 54.6335 49.9512 55.3196 49.9512 56.0059C51.889 56.0261 53.8265 56.0059 55.7637 55.9453C56.9666 55.5901 57.7133 54.803 58.0039 53.584C58.0847 43.1699 58.0847 32.7559 58.0039 22.3418C57.7133 21.1227 56.9666 20.3356 55.7637 19.9805C39.2142 19.8997 22.6648 19.8997 6.11524 19.9805C4.91234 20.3356 4.1656 21.1227 3.875 22.3418C3.79427 32.7559 3.79427 43.1699 3.875 53.584C4.1656 54.803 4.91234 55.5901 6.11524 55.9453C9.14258 55.9856 12.1699 56.0261 15.1973 56.0664C16.1552 56.4969 16.2763 57.1024 15.5605 57.8828C12.291 57.9636 9.02149 57.9636 5.75196 57.8828C3.65046 57.3151 2.37897 55.9629 1.9375 53.8262C1.81797 43.0849 1.85833 32.3479 2.0586 21.6152C2.54234 19.9205 3.612 18.7701 5.26758 18.1641C7.48093 17.9888 9.70098 17.9283 11.9277 17.9824C11.9479 16.6901 11.9277 15.3984 11.8672 14.1074C10.8595 14.578 9.83019 15.0018 8.7793 15.3789C7.96795 15.5713 7.26157 15.3897 6.66016 14.834C6.11803 13.8134 5.69421 12.7438 5.38867 11.625C5.42883 10.8989 5.75174 10.3338 6.35742 9.92969C7.81055 9.32422 9.26367 8.71875 10.7168 8.11328C11.529 7.93897 11.973 8.26189 12.0488 9.08203C12.0243 9.37337 11.9032 9.61556 11.6855 9.80859C10.3272 10.4272 8.95478 11.0125 7.56836 11.5645C7.46277 11.8025 7.48295 12.0447 7.62891 12.291C7.79558 12.7358 8.01758 13.1394 8.29492 13.502C15.8035 10.2924 23.3516 7.18437 30.9395 4.17773C31.3081 4.2598 31.6713 4.36071 32.0293 4.48047C39.2403 7.54229 46.4656 10.5293 53.7051 13.4414C53.9796 12.8922 54.2218 12.3271 54.4316 11.7461C46.6527 8.36198 38.8219 5.07228 30.9395 1.87695C25.5306 4.097 20.1218 6.31706 14.7129 8.53711C13.8916 8.38963 13.5889 7.90525 13.8047 7.08398C13.946 6.9427 14.0872 6.80144 14.2285 6.66016C19.5813 4.44701 24.9095 2.20678 30.2129 -0.0605469ZM30.6973 6.23633C36.4713 8.45743 42.203 10.7986 47.8926 13.2598C48.0136 14.8319 48.0539 16.4061 48.0137 17.9824C36.6309 17.9824 25.248 17.9824 13.8652 17.9824C13.825 16.4061 13.8654 14.8319 13.9863 13.2598C19.5674 10.9123 25.1377 8.57116 30.6973 6.23633ZM11.8066 23.916C24.5618 23.916 37.3171 23.916 50.0723 23.916C50.5549 26.094 51.887 27.426 54.0684 27.9121C54.0684 34.6126 54.0684 41.3132 54.0684 48.0137C51.8988 48.508 50.5466 49.84 50.0117 52.0098C50.0128 51.0847 49.7908 50.217 49.3457 49.4062C52.5458 45.6227 52.8083 41.6468 50.1328 37.4785C48.5155 35.4283 46.3963 34.2779 43.7754 34.0273C33.3613 33.9466 22.9473 33.9466 12.5332 34.0273C11.98 34.335 11.7983 34.7993 11.9883 35.4199C12.1296 35.5612 12.2708 35.7024 12.4121 35.8438C20.7273 35.8841 29.0423 35.9245 37.3574 35.9648C36.6255 36.4948 36.0201 37.1407 35.541 37.9023C27.9121 37.9427 20.2832 37.9831 12.6543 38.0234C11.9997 38.2632 11.7777 38.7275 11.9883 39.416C12.1296 39.5573 12.2708 39.6985 12.4121 39.8398C19.7584 39.9004 27.1047 39.9206 34.4512 39.9004C34.2523 40.5717 34.1312 41.2579 34.0879 41.959C28.9614 41.9388 23.8351 41.959 18.709 42.0195C17.9863 42.3091 17.7642 42.8137 18.043 43.5332C18.1523 43.6786 18.2935 43.7796 18.4668 43.8359C23.6737 43.8965 28.8807 43.9167 34.0879 43.8965C34.2799 46.0564 35.1276 47.9133 36.6309 49.4668C36.1058 50.237 35.9039 51.0846 36.0254 52.0098C27.9524 52.0098 19.8796 52.0098 11.8066 52.0098C11.324 49.8318 9.99193 48.4997 7.81055 48.0137C7.81055 41.3132 7.81055 34.6126 7.81055 27.9121C9.99193 27.426 11.324 26.094 11.8066 23.916ZM42.2012 35.9043C45.9674 35.8582 48.4902 37.5939 49.7695 41.1113C50.508 45.3465 48.8732 48.2326 44.8652 49.7695C41.2985 50.4782 38.5739 49.2875 36.6914 46.1973C35.1271 42.2932 36.0758 39.165 39.5371 36.8125C40.3942 36.3722 41.2822 36.0695 42.2012 35.9043ZM38.2051 50.6777C38.7693 51.014 39.3747 51.2562 40.0215 51.4043C40.0618 54.0696 40.0215 56.7336 39.9004 59.3965C39.2678 59.6478 38.6219 59.8496 37.9629 60.002C37.9427 57.0147 37.9629 54.0277 38.0234 51.041C38.0856 50.9167 38.1461 50.7956 38.2051 50.6777ZM47.5293 50.6777C47.7515 50.7531 47.8928 50.9146 47.9531 51.1621C48.0137 54.1084 48.0339 57.055 48.0137 60.002C47.3547 59.8496 46.7088 59.6478 46.0762 59.3965C45.9551 56.7336 45.9148 54.0696 45.9551 51.4043C46.5304 51.2578 47.0551 51.0156 47.5293 50.6777ZM41.959 51.8887C42.6452 52.0501 43.3313 52.0501 44.0176 51.8887C44.0176 54.1491 44.0176 56.4095 44.0176 58.6699C43.3313 58.5085 42.6452 58.5085 41.959 58.6699C41.959 56.4095 41.959 54.1491 41.959 51.8887Z" fill="#2690EE"/>
<path opacity="0.871" fill-rule="evenodd" clip-rule="evenodd" d="M6.2364 21.9785C6.68223 21.9586 7.12624 21.9787 7.56843 22.0391C8.16735 22.5598 8.20772 23.1249 7.68952 23.7344C7.02587 24.0104 6.40022 23.9498 5.81257 23.5528C5.49138 22.8915 5.63265 22.3668 6.2364 21.9785Z" fill="#2690EE"/>
<path opacity="0.871" fill-rule="evenodd" clip-rule="evenodd" d="M54.3105 21.9785C54.8515 21.934 55.3762 21.9946 55.8847 22.1601C56.2806 22.5782 56.3411 23.0424 56.0664 23.5527C55.4787 23.9497 54.853 24.0103 54.1894 23.7343C53.677 23.1057 53.7173 22.5204 54.3105 21.9785Z" fill="#2690EE"/>
<path opacity="0.936" fill-rule="evenodd" clip-rule="evenodd" d="M23.3105 25.9746C28.3966 25.9544 33.4825 25.9746 38.5683 26.0352C39.194 26.2571 39.6179 26.681 39.8398 27.3067C39.9206 28.3965 39.9206 29.4863 39.8398 30.5762C39.5666 31.2128 39.1024 31.6366 38.4472 31.8477C33.4016 31.9284 28.3561 31.9284 23.3105 31.8477C22.0905 31.2435 21.6465 30.2546 21.9785 28.8809C21.6512 27.5191 22.0952 26.5503 23.3105 25.9746ZM23.916 27.9121C23.916 28.5984 23.916 29.2845 23.916 29.9707C28.5983 29.9707 33.2805 29.9707 37.9629 29.9707C37.9629 29.2845 37.9629 28.5984 37.9629 27.9121C33.2805 27.9121 28.5983 27.9121 23.916 27.9121Z" fill="#2690EE"/>
<path opacity="0.925" fill-rule="evenodd" clip-rule="evenodd" d="M42.4434 37.9629C46.3714 38.1574 48.1676 40.216 47.832 44.1387C47.0823 46.5022 45.4678 47.7939 42.9883 48.0137C39.916 47.7063 38.2409 46.011 37.9629 42.9277C38.237 40.1518 39.7306 38.4969 42.4434 37.9629ZM42.5645 39.9004C41.7685 40.0673 41.1025 40.4709 40.5664 41.1113C39.4517 43.0911 39.8756 44.6452 41.8379 45.7734C43.5985 46.3162 44.9103 45.7713 45.7734 44.1387C46.2853 41.5299 45.2157 40.1171 42.5645 39.9004Z" fill="#2690EE"/>
<path opacity="0.919" fill-rule="evenodd" clip-rule="evenodd" d="M14.5917 48.0137C16.1261 47.9935 17.66 48.0137 19.1933 48.0742C19.7653 48.3691 19.947 48.8334 19.7382 49.4668C19.6374 49.6485 19.496 49.7898 19.3144 49.8906C17.6999 49.9714 16.0852 49.9714 14.4706 49.8906C13.6627 49.221 13.7032 48.5953 14.5917 48.0137Z" fill="#2690EE"/>
<path opacity="0.878" fill-rule="evenodd" clip-rule="evenodd" d="M6.35742 52.0097C7.58955 51.7697 8.13447 52.2541 7.99219 53.4628C7.89128 53.5839 7.79036 53.705 7.68945 53.8261C7.17154 53.9601 6.6468 53.9802 6.11523 53.8867C5.43351 53.1587 5.51425 52.533 6.35742 52.0097Z" fill="#2690EE"/>
<path opacity="0.878" fill-rule="evenodd" clip-rule="evenodd" d="M54.5528 52.0097C55.4573 51.8349 56.0225 52.178 56.2481 53.039C56.2124 53.393 56.0508 53.6756 55.7637 53.8867C55.2793 53.9674 54.795 53.9674 54.3106 53.8867C53.8611 53.5769 53.7199 53.1531 53.8868 52.6152C54.0208 52.2988 54.2428 52.0969 54.5528 52.0097Z" fill="#2690EE"/>
</g>
<defs>
<clipPath id="clip0_203_1357">
<rect width="62" height="62" fill="white"/>
</clipPath>
</defs>
</svg>
