<svg width="62" height="62" viewBox="0 0 62 62" fill="none" xmlns="http://www.w3.org/2000/svg">
<g clip-path="url(#clip0_203_1332)">
<rect x="23" y="26" width="32" height="32" rx="8" fill="#2690EE" fill-opacity="0.18"/>
<path opacity="0.931" fill-rule="evenodd" clip-rule="evenodd" d="M15.1973 -0.0605469C16.489 -0.0605469 17.7806 -0.0605469 19.0723 -0.0605469C21.3284 0.279226 23.4273 1.06634 25.3691 2.30078C26.1403 3.06068 26.4632 3.96888 26.3379 5.02539C28.1686 6.41165 29.5813 8.12715 30.5762 10.1719C30.4103 11.0198 29.9259 11.3023 29.123 11.0195C28.1935 9.64468 27.1239 8.3732 25.9141 7.20508C25.5405 7.99322 25.0763 8.71978 24.5215 9.38477C27.3307 11.9797 28.6425 15.2089 28.457 19.0723C28.5579 19.1731 28.6589 19.2741 28.7598 19.375C29.3639 19.4354 29.9694 19.4556 30.5762 19.4355C30.5964 18.1432 30.5762 16.8515 30.5156 15.5605C30.4533 15.0668 30.3523 14.5825 30.2129 14.1074C30.484 13.1303 31.0693 12.8881 31.9688 13.3809C32.2378 14.0399 32.3994 14.726 32.4531 15.4395C32.4733 16.9346 32.5339 18.428 32.6348 19.9199C34.198 21.077 34.7429 22.6107 34.2695 24.5215C33.7246 27.0436 32.3118 28.9004 30.0312 30.0918C29.9567 32.0915 29.3512 33.9079 28.2148 35.541C27.0097 36.7677 25.7585 37.9383 24.4609 39.0527C24.3601 40.7092 24.3803 42.3642 24.5215 44.0176C25.3005 43.8487 26.027 43.99 26.7012 44.4414C27.3651 45.0355 28.0512 45.6005 28.7598 46.1367C29.68 46.4305 30.6084 46.5717 31.5449 46.5605C30.7009 42.1214 31.6091 38.085 34.2695 34.4512C34.4237 33.809 34.565 33.1632 34.6934 32.5137C34.2194 31.8573 33.6745 31.2519 33.0586 30.6973C32.6973 29.934 32.8789 29.3486 33.6035 28.9414C34.324 28.7865 35.0506 28.6654 35.7832 28.5781C36.2022 27.8816 36.6058 27.1753 36.9941 26.459C37.5996 25.9746 38.2051 25.9746 38.8105 26.459C39.2065 27.1298 39.5698 27.8161 39.9004 28.5176C40.602 28.6554 41.3083 28.7765 42.0195 28.8809C45.0871 28.0735 48.1547 28.0735 51.2227 28.8809C51.8869 28.7687 52.5529 28.6677 53.2207 28.5781C53.6495 27.8214 54.0934 27.0746 54.5527 26.3379C55.2883 25.9281 55.9138 26.0492 56.4297 26.7012C56.7329 27.3077 57.0356 27.9132 57.3379 28.5176C58.1043 28.6531 58.8712 28.7944 59.6387 28.9414C60.3296 29.3599 60.5113 29.9452 60.1836 30.6973C59.5677 31.2519 59.0228 31.8573 58.5488 32.5137C58.6628 33.0763 58.7636 33.6414 58.8516 34.209C60.484 36.4239 61.5133 38.8861 61.9395 41.5957C61.9395 42.9277 61.9395 44.2598 61.9395 45.5918C61.5107 48.5937 60.2997 51.2375 58.3066 53.5234C57.2018 53.8321 56.7376 53.4083 56.9141 52.252C60.2116 48.006 60.8978 43.364 58.9727 38.3262C58.5751 37.3889 58.0705 36.521 57.459 35.7227C56.76 35.3631 56.0537 35.02 55.3398 34.6934C54.7068 34.9796 54.0812 35.2824 53.4629 35.6016C52.4588 35.8473 51.8938 35.4638 51.7676 34.4512C51.9354 33.7276 52.0363 33.0011 52.0703 32.2715C51.5657 31.7669 51.0612 31.2624 50.5566 30.7578C47.9329 30.0312 45.3093 30.0312 42.6855 30.7578C42.181 31.2624 41.6765 31.7669 41.1719 32.2715C41.2123 33.0201 41.3133 33.7669 41.4746 34.5117C41.3123 35.4817 40.7472 35.845 39.7793 35.6016C39.161 35.2824 38.5354 34.9796 37.9023 34.6934C37.1885 35.02 36.4822 35.3631 35.7832 35.7227C32.6993 40.2616 32.3561 45.0044 34.7539 49.9512C37.8931 55.1839 42.5148 57.5049 48.6191 56.9141C49.8761 56.7008 51.087 56.3375 52.252 55.8242C53.0446 55.3675 53.8518 54.9436 54.6738 54.5527C55.757 54.9353 55.9184 55.5608 55.1582 56.4297C51.8626 58.5701 48.2701 59.3573 44.3809 58.791C44.2802 59.6763 44.2197 60.5643 44.1992 61.4551C44.1157 61.6791 43.9745 61.8406 43.7754 61.9395C43.4524 61.9395 43.1296 61.9395 42.8066 61.9395C42.6449 61.7566 42.5035 61.5547 42.3828 61.334C42.3425 60.3652 42.302 59.3965 42.2617 58.4277C39.36 57.4815 36.8978 55.867 34.875 53.584C34.5514 54.3118 34.3496 55.0786 34.2695 55.8848C34.1305 57.7385 34.0499 59.5952 34.0273 61.4551C33.9438 61.6791 33.8026 61.8406 33.6035 61.9395C33.2806 61.9395 32.9577 61.9395 32.6348 61.9395C32.473 61.7566 32.3317 61.5547 32.2109 61.334C31.9043 58.1024 32.2676 54.9539 33.3008 51.8887C33.3815 51.6868 33.3815 51.4851 33.3008 51.2832C32.8268 50.4766 32.403 49.649 32.0293 48.8008C30.9301 48.6173 29.8403 48.3952 28.7598 48.1348C28.257 48.5769 27.7726 49.041 27.3066 49.5273C26.2143 50.0055 25.6693 49.6625 25.6719 48.498C26.0327 48.0362 26.4161 47.5921 26.8223 47.166C26.353 46.6769 25.8283 46.2531 25.248 45.8945C24.9895 45.8176 24.7473 45.8581 24.5215 46.0156C22.5389 47.4903 20.5611 48.9637 18.5879 50.4355C19.0278 51.1338 19.5122 51.7998 20.041 52.4336C20.4851 52.6758 20.929 52.6758 21.373 52.4336C21.9017 51.8643 22.4669 51.3396 23.0684 50.8594C24.3895 50.7356 24.7729 51.2805 24.2188 52.4941C23.6374 52.9542 23.0925 53.4588 22.584 54.0078C21.3327 54.7344 20.0813 54.7344 18.8301 54.0078C18.2387 53.3566 17.6736 52.6906 17.1348 52.0098C16.5959 52.6906 16.0309 53.3566 15.4395 54.0078C14.1836 54.7338 12.9323 54.7338 11.6855 54.0078C9.64528 52.028 7.58668 50.0703 5.50977 48.1348C3.79756 48.5816 2.06188 48.844 0.302734 48.9219C0.196966 48.7953 0.0758726 48.6945 -0.0605469 48.6191C-0.0605469 48.2559 -0.0605469 47.8926 -0.0605469 47.5293C0.152874 47.2629 0.435426 47.1216 0.787109 47.1055C2.407 46.8085 4.02158 46.4857 5.63086 46.1367C6.32205 45.4856 7.04861 44.8801 7.81055 44.3203C8.42449 43.9753 9.07032 43.8743 9.74805 44.0176C9.88925 42.3642 9.90943 40.7092 9.80859 39.0527C8.37317 37.8703 7.04114 36.5785 5.8125 35.1777C4.83886 33.6251 4.31412 31.9298 4.23828 30.0918C1.9045 28.8689 0.47156 26.9718 -0.0605469 24.4004C-0.0605469 23.6335 -0.0605469 22.8665 -0.0605469 22.0996C0.276877 21.1042 0.902529 20.3372 1.81641 19.7988C1.85677 17.9421 1.89714 16.0852 1.9375 14.2285C1.85709 13.1083 2.36164 12.6844 3.45117 12.957C3.63872 13.104 3.78 13.2857 3.875 13.502C3.82803 15.4766 3.80784 17.4546 3.81445 19.4355C5.17522 19.6825 6.36597 19.3595 7.38672 18.4668C9.52017 15.251 12.3255 12.8089 15.8027 11.1406C18.1174 10.2053 20.4182 9.23652 22.7051 8.23438C23.8015 7.35385 24.4069 6.20346 24.5215 4.7832C24.4591 4.39053 24.2977 4.04743 24.0371 3.75391C18.9385 0.978046 13.9736 1.22024 9.14258 4.48047C7.12605 6.0319 5.65274 7.98958 4.72266 10.3535C4.02279 10.8602 3.4577 10.7391 3.02734 9.99023C2.94661 9.78841 2.94661 9.58659 3.02734 9.38477C5.38649 4.03875 9.44313 0.890324 15.1973 -0.0605469ZM22.4629 10.4746C22.5903 10.4565 22.7114 10.4767 22.8262 10.5352C25.5899 12.888 26.8211 15.8951 26.5195 19.5566C26.7916 20.2526 27.2559 20.7773 27.9121 21.1309C28.0534 24.3592 28.0735 27.5884 27.9727 30.8184C27.8619 32.1199 27.4179 33.2905 26.6406 34.3301C24.719 36.1307 22.7614 37.8866 20.7676 39.5977C20.3097 39.8671 19.8253 40.0688 19.3145 40.2031C17.693 40.315 16.0785 40.2747 14.4707 40.082C13.8852 39.8503 13.3604 39.5273 12.8965 39.1133C11.1406 37.5188 9.38477 35.9245 7.62891 34.3301C6.81037 33.2165 6.36636 31.9652 6.29688 30.5762C6.23633 27.4683 6.21615 24.3603 6.23633 21.252C7.0396 21.0724 7.76617 20.7292 8.41602 20.2227C9.62202 18.7338 10.8733 17.2807 12.1699 15.8633C13.0336 15.0884 13.962 14.4023 14.9551 13.8047C17.4347 12.6095 19.9372 11.4995 22.4629 10.4746ZM3.08789 21.373C3.49153 21.373 3.89519 21.373 4.29883 21.373C4.319 23.5128 4.29882 25.652 4.23828 27.791C2.47921 26.4517 1.71229 24.6758 1.9375 22.4629C2.21531 21.9738 2.59878 21.6105 3.08789 21.373ZM29.9707 21.373C31.3715 21.182 32.2192 21.7672 32.5137 23.1289C32.3671 25.0573 31.5396 26.6114 30.0312 27.791C29.9707 25.652 29.9505 23.5128 29.9707 21.373ZM39.1738 32.998C38.7765 32.7895 38.3527 32.6684 37.9023 32.6348C37.452 32.6684 37.0282 32.7895 36.6309 32.998C36.9139 32.0122 36.6313 31.2251 35.7832 30.6367C36.2757 30.5191 36.7601 30.3577 37.2363 30.1523C37.5042 29.7986 37.7262 29.4151 37.9023 29.002C38.0785 29.4151 38.3005 29.7986 38.5684 30.1523C39.0446 30.3577 39.529 30.5191 40.0215 30.6367C39.1495 31.2143 38.867 32.0014 39.1738 32.998ZM56.6113 32.998C56.214 32.7895 55.7902 32.6684 55.3398 32.6348C54.8895 32.6684 54.4657 32.7895 54.0684 32.998C54.3514 32.0122 54.0688 31.2251 53.2207 30.6367C53.7132 30.5191 54.1976 30.3577 54.6738 30.1523C54.9417 29.7986 55.1637 29.4151 55.3398 29.002C55.516 29.4151 55.738 29.7986 56.0059 30.1523C56.4821 30.3577 56.9665 30.5191 57.459 30.6367C56.587 31.2143 56.3045 32.0014 56.6113 32.998ZM11.8066 40.748C13.3505 42.0107 15.1265 42.4951 17.1348 42.2012C19.1253 42.5026 20.8812 42.0182 22.4023 40.748C22.4324 42.0619 22.4929 43.3738 22.584 44.6836C22.5437 44.8249 22.5032 44.9661 22.4629 45.1074C20.6868 46.3991 18.9108 47.6907 17.1348 48.9824C15.3587 47.6907 13.5827 46.3991 11.8066 45.1074C11.7899 43.6628 11.7899 42.2096 11.8066 40.748ZM9.14258 45.834C9.34588 45.8815 9.5477 45.942 9.74805 46.0156C11.6735 47.493 13.6312 48.9259 15.6211 50.3145C15.7019 50.4355 15.7019 50.5566 15.6211 50.6777C15.1715 51.274 14.7073 51.8594 14.2285 52.4336C13.7845 52.6758 13.3405 52.6758 12.8965 52.4336C11.0801 50.698 9.26367 48.9622 7.44727 47.2266C8.00278 46.7297 8.56789 46.2656 9.14258 45.834Z" fill="#2690EE"/>
<path opacity="0.927" fill-rule="evenodd" clip-rule="evenodd" d="M46.5605 13.8652C47.0179 13.9224 47.4013 14.1243 47.7109 14.4707C48.1751 15.3991 48.6394 16.3274 49.1035 17.2559C50.2285 17.4905 51.3586 17.7125 52.4941 17.9219C53.2074 18.3796 53.389 19.0053 53.0391 19.7988C52.2722 20.5657 51.5052 21.3327 50.7383 22.0996C50.8389 23.1485 50.9802 24.198 51.1621 25.248C51.1052 26.3332 50.5401 26.757 49.4668 26.5195C48.4895 26.0612 47.5408 25.5567 46.6211 25.0059C45.7014 25.5567 44.7527 26.0612 43.7754 26.5195C42.7021 26.757 42.137 26.3332 42.0801 25.248C42.236 24.193 42.3772 23.1434 42.5039 22.0996C41.6524 21.2886 40.8452 20.441 40.082 19.5566C39.9163 18.9588 40.0575 18.4542 40.5059 18.043C41.7083 17.7528 42.9193 17.4904 44.1387 17.2559C44.6028 16.3274 45.0671 15.3991 45.5313 14.4707C45.8216 14.1549 46.1647 13.953 46.5605 13.8652ZM46.5605 16.7715C46.9557 17.5406 47.3996 18.2873 47.8926 19.0117C48.7419 19.2362 49.5896 19.4381 50.4355 19.6172C49.8841 20.1686 49.3392 20.7136 48.8008 21.252C48.728 21.4502 48.6675 21.6519 48.6191 21.8574C48.787 22.5807 48.8878 23.3073 48.9219 24.0371C48.2067 23.5782 47.4397 23.2553 46.6211 23.0684C45.8025 23.2553 45.0355 23.5782 44.3203 24.0371C44.3285 23.3012 44.4294 22.5747 44.623 21.8574C44.5439 21.6619 44.4833 21.46 44.4414 21.252C43.8965 20.707 43.3516 20.1621 42.8066 19.6172C43.6526 19.4381 44.5003 19.2362 45.3496 19.0117C45.864 18.3261 46.2676 17.5793 46.5605 16.7715Z" fill="#2690EE"/>
<path opacity="0.916" fill-rule="evenodd" clip-rule="evenodd" d="M10.959 19.6777C12.0284 19.6075 13.0779 19.7084 14.1075 19.9805C15.0849 20.2251 15.428 20.8103 15.1368 21.7363C14.9124 21.9897 14.6299 22.1108 14.2891 22.0996C13.8498 22.0115 13.4259 21.8703 13.0176 21.6758C12.0852 21.5143 11.1972 21.6354 10.3536 22.0391C9.19866 22.2168 8.77483 21.7527 9.08207 20.6465C9.64243 20.1747 10.2681 19.8518 10.959 19.6777Z" fill="#2690EE"/>
<path opacity="0.916" fill-rule="evenodd" clip-rule="evenodd" d="M21.0098 19.6777C22.0792 19.6075 23.1287 19.7084 24.1582 19.9805C25.1357 20.2251 25.4788 20.8103 25.1875 21.7363C24.9631 21.9897 24.6806 22.1108 24.3399 22.0996C23.9005 22.0115 23.4767 21.8703 23.0684 21.6758C22.136 21.5143 21.248 21.6354 20.4043 22.0391C19.2495 22.2168 18.8256 21.7527 19.1328 20.6465C19.6931 20.1747 20.3188 19.8518 21.0098 19.6777Z" fill="#2690EE"/>
<path opacity="0.909" fill-rule="evenodd" clip-rule="evenodd" d="M11.8066 22.8262C12.4675 22.7625 12.8913 23.045 13.0781 23.6738C13.1589 24.4407 13.1589 25.2077 13.0781 25.9746C12.8081 26.8178 12.2632 27.0398 11.4434 26.6406C11.3676 26.5498 11.307 26.4488 11.2617 26.3379C11.181 25.3288 11.181 24.3196 11.2617 23.3105C11.4309 23.1204 11.6125 22.9589 11.8066 22.8262Z" fill="#2690EE"/>
<path opacity="0.909" fill-rule="evenodd" clip-rule="evenodd" d="M21.8575 22.8262C22.5183 22.7625 22.9421 23.045 23.1289 23.6738C23.2097 24.4407 23.2097 25.2077 23.1289 25.9746C22.8589 26.8178 22.314 27.0398 21.4942 26.6406C21.4184 26.5498 21.3578 26.4488 21.3125 26.3379C21.2318 25.3288 21.2318 24.3196 21.3125 23.3105C21.4817 23.1204 21.6633 22.9589 21.8575 22.8262Z" fill="#2690EE"/>
<path opacity="0.911" fill-rule="evenodd" clip-rule="evenodd" d="M15.4394 28.6387C16.0176 28.6848 16.5828 28.8059 17.1347 29.002C17.4704 28.9383 17.7932 28.8374 18.1035 28.6992C19.1526 28.5781 19.5765 29.0424 19.375 30.0918C18.7384 30.6474 17.9916 30.9299 17.1347 30.9395C16.2779 30.9299 15.5311 30.6474 14.8945 30.0918C14.6897 29.4416 14.8714 28.9573 15.4394 28.6387Z" fill="#2690EE"/>
<path opacity="0.933" fill-rule="evenodd" clip-rule="evenodd" d="M45.7128 31.666C47.7373 31.753 48.8675 32.8024 49.1035 34.8145C48.9655 35.7665 48.8041 36.7151 48.6191 37.6602C48.6117 37.8673 48.6925 38.0288 48.8613 38.1445C50.6777 38.1849 52.4941 38.2253 54.3105 38.2656C56.0758 38.8908 56.641 40.1018 56.0058 41.8984C56.9449 43.1215 56.9449 44.3324 56.0058 45.5312C56.5323 46.8415 56.2699 47.9516 55.2187 48.8613C55.2593 49.6775 55.0977 50.4445 54.7343 51.1621C54.4997 51.4777 54.1969 51.6996 53.8261 51.8281C50.2815 52.027 46.7294 52.0674 43.1699 51.9492C42.588 51.8563 42.0632 51.6344 41.5957 51.2832C41.3093 51.6283 40.946 51.8504 40.5058 51.9492C39.6985 52.03 38.8913 52.03 38.0839 51.9492C37.4423 51.7799 36.9781 51.3964 36.6914 50.7988C36.5538 48.9078 36.4933 47.0108 36.5097 45.1074C36.4933 43.2041 36.5538 41.307 36.6914 39.416C37.0112 38.8537 37.4754 38.4702 38.0839 38.2656C38.8913 38.1849 39.6985 38.1849 40.5058 38.2656C40.946 38.3644 41.3093 38.5865 41.5957 38.9316C42.1385 38.3677 42.5624 37.7219 42.8671 36.9941C43.3846 35.4416 43.9497 33.9078 44.5625 32.3926C44.9067 32.0701 45.2901 31.8279 45.7128 31.666ZM46.0761 33.6035C45.6488 34.9865 45.1845 36.359 44.6835 37.7207C44.1522 39.1186 43.2844 40.2488 42.08 41.1113C42.0397 42.3626 41.9993 43.614 41.9589 44.8652C41.9427 46.2458 42.0033 47.6183 42.1406 48.9824C42.4379 49.5454 42.902 49.8886 43.5332 50.0117C46.7219 50.0925 49.9108 50.0925 53.0996 50.0117C53.261 49.8099 53.261 49.6081 53.0996 49.4062C52.5749 49.3659 52.05 49.3255 51.5253 49.2852C50.5969 48.8411 50.4758 48.2356 51.1621 47.4688C52.05 47.4284 52.9381 47.388 53.8261 47.3477C54.4719 46.9844 54.4719 46.6211 53.8261 46.2578C52.9785 46.2175 52.1308 46.177 51.2832 46.1367C51.1099 46.0804 50.9687 45.9794 50.8593 45.834C50.5656 45.1003 50.7876 44.5957 51.5253 44.3203C52.4941 44.28 53.4628 44.2395 54.4316 44.1992C54.7826 43.817 54.7422 43.4942 54.3105 43.2305C53.3014 43.1901 52.2922 43.1497 51.2832 43.1094C50.4722 42.4666 50.5125 41.8611 51.4043 41.293C52.2922 41.2526 53.1803 41.2122 54.0683 41.1719C54.4194 40.7897 54.3789 40.4669 53.9472 40.2031C52.1308 40.1628 50.3144 40.1224 48.498 40.082C47.0307 39.6313 46.4453 38.6425 46.7421 37.1152C46.9275 36.2707 47.0486 35.4231 47.1054 34.5723C46.9375 34.0611 46.5943 33.7382 46.0761 33.6035ZM38.5683 40.1426C38.4282 43.4034 38.408 46.6729 38.5078 49.9512C39.0001 50.0679 39.5047 50.1082 40.0214 50.0723C40.0214 46.7624 40.0214 43.4524 40.0214 40.1426C39.5371 40.1426 39.0527 40.1426 38.5683 40.1426Z" fill="#2690EE"/>
<path opacity="0.907" fill-rule="evenodd" clip-rule="evenodd" d="M14.2286 33.2402C15.1729 33.5491 16.1416 33.7913 17.1348 33.9668C17.9171 33.928 18.6436 33.7061 19.3145 33.3008C20.3035 33.1595 20.7273 33.5833 20.586 34.5723C20.5297 34.7456 20.4287 34.8867 20.2833 34.9961C18.0798 36.2556 15.9204 36.195 13.8047 34.8145C13.5184 34.1618 13.6596 33.6369 14.2286 33.2402Z" fill="#2690EE"/>
</g>
<defs>
<clipPath id="clip0_203_1332">
<rect width="62" height="62" fill="white"/>
</clipPath>
</defs>
</svg>
