<svg width="62" height="62" viewBox="0 0 62 62" fill="none" xmlns="http://www.w3.org/2000/svg">
<g clip-path="url(#clip0_203_1309)">
<rect x="15" y="12" width="32" height="32" rx="8" fill="#2690EE" fill-opacity="0.18"/>
<path opacity="0.925" fill-rule="evenodd" clip-rule="evenodd" d="M26.2168 -0.0605469C26.6609 -0.0605469 27.1048 -0.0605469 27.5488 -0.0605469C28.0445 0.210835 28.5288 0.51357 29.002 0.847656C30.2937 0.928386 31.5853 0.928386 32.877 0.847656C33.3501 0.51357 33.8344 0.210835 34.3301 -0.0605469C34.7741 -0.0605469 35.2181 -0.0605469 35.6621 -0.0605469C36.9527 0.595664 38.1838 1.3626 39.3555 2.24023C39.4362 2.40169 39.5169 2.56316 39.5977 2.72461C39.6291 3.55499 39.6897 4.38246 39.7793 5.20703C39.5799 6.09386 39.0552 6.37641 38.2051 6.05469C37.9851 5.83674 37.8437 5.57438 37.7813 5.26758C37.7606 4.61801 37.7 3.97218 37.5996 3.33008C36.746 2.81944 35.8781 2.33506 34.9961 1.87695C33.7922 2.76875 32.4399 3.09167 30.9395 2.8457C29.439 3.09167 28.0867 2.76875 26.8828 1.87695C26.0008 2.33506 25.1329 2.81944 24.2793 3.33008C24.2034 4.1031 24.1025 4.87003 23.9766 5.63086C23.2903 6.8418 22.6042 8.05274 21.918 9.26367C21.3542 9.7274 20.7487 10.131 20.1016 10.4746C20.0208 11.5241 20.0208 12.5735 20.1016 13.623C20.7904 13.9065 21.3958 14.3101 21.918 14.834C22.6042 16.0449 23.2903 17.2559 23.9766 18.4668C24.1214 19.1836 24.202 19.9101 24.2188 20.6465C25.0766 21.1864 25.9443 21.7111 26.8223 22.2207C28.0514 21.3263 29.4239 21.0035 30.9395 21.252C32.4551 21.0035 33.8275 21.3263 35.0566 22.2207C35.9346 21.7111 36.8023 21.1864 37.6602 20.6465C37.6769 19.9101 37.7575 19.1836 37.9024 18.4668C38.6235 17.0438 39.4509 15.6916 40.3848 14.4102C40.8391 14.1325 41.3034 13.8701 41.7774 13.623C41.8581 12.5735 41.8581 11.5241 41.7774 10.4746C41.1302 10.131 40.5248 9.7274 39.9609 9.26367C39.3344 7.99506 39.7179 7.40978 41.1113 7.50781C41.5999 8.09678 42.2054 8.54079 42.9277 8.83984C43.3357 9.12622 43.5981 9.50967 43.7149 9.99024C43.7956 11.3626 43.7956 12.7351 43.7149 14.1074C43.5981 14.5879 43.3357 14.9714 42.9277 15.2578C42.4643 15.4692 42.0204 15.7114 41.5957 15.9844C40.9548 17.0441 40.3292 18.1138 39.7188 19.1934C39.6784 19.8796 39.638 20.5657 39.5977 21.252C39.5297 21.5214 39.4086 21.7636 39.2344 21.9785C37.9622 22.9475 36.5696 23.6741 35.0566 24.1582C34.2326 24.0893 33.506 23.7866 32.877 23.25C31.5853 23.1692 30.2937 23.1692 29.002 23.25C28.4926 23.5651 27.9679 23.8477 27.4277 24.0977C27.0241 24.1784 26.6204 24.1784 26.2168 24.0977C25.0866 23.4519 23.9563 22.806 22.8262 22.1602C22.6703 21.9894 22.529 21.8078 22.4024 21.6152C22.2556 20.8176 22.1748 20.0103 22.1602 19.1934C21.5497 18.1138 20.9242 17.0441 20.2832 15.9844C19.8585 15.7114 19.4146 15.4692 18.9512 15.2578C18.6837 15.031 18.4617 14.7686 18.2852 14.4707C18.1511 13.6727 18.0906 12.8654 18.1035 12.0488C17.651 10.0668 18.3776 8.75496 20.2832 8.11328C20.9242 7.05357 21.5497 5.9839 22.1602 4.9043C22.2005 4.17773 22.2409 3.45117 22.2813 2.72461C22.4097 2.35387 22.6317 2.05113 22.9473 1.81641C24.0486 1.18581 25.1385 0.560162 26.2168 -0.0605469Z" fill="#2690EE"/>
<path opacity="0.925" fill-rule="evenodd" clip-rule="evenodd" d="M30.0917 6.47852C33.5668 6.34351 35.6859 7.9581 36.4492 11.3223C36.5937 14.4074 35.2012 16.4459 32.2714 17.4375C29.5881 17.902 27.5093 16.9938 26.0351 14.7129C24.7664 11.6937 25.4324 9.21131 28.0331 7.26563C28.7016 6.91566 29.3877 6.65329 30.0917 6.47852ZM30.3339 8.41602C28.5325 8.94369 27.5233 10.1546 27.3066 12.0488C27.7222 14.706 29.2561 15.8564 31.9081 15.5C34.2618 14.4857 35.0086 12.7703 34.1484 10.3535C33.2897 8.92505 32.0182 8.27922 30.3339 8.41602Z" fill="#2690EE"/>
<path opacity="0.928" fill-rule="evenodd" clip-rule="evenodd" d="M11.3222 17.0137C12.003 17.0324 12.6084 17.2544 13.1386 17.6797C13.9863 17.7605 14.834 17.7605 15.6816 17.6797C16.4636 17.0292 17.3113 16.9081 18.2246 17.3164C19.0856 17.7568 19.8727 18.3017 20.5859 18.9512C20.7265 19.5465 20.8072 20.1519 20.8281 20.7676C21.1914 21.4134 21.5547 22.0593 21.9179 22.7051C22.5872 22.979 23.1119 23.423 23.4922 24.0371C23.6072 25.3005 23.5669 26.5517 23.3711 27.791C23.0005 28.1681 22.5767 28.4708 22.0996 28.6992C21.6301 29.3755 21.2063 30.0819 20.8281 30.8184C20.9502 31.7471 20.6879 32.5343 20.041 33.1797C19.3144 33.5833 18.5879 33.987 17.8613 34.3906C17.0911 34.5684 16.405 34.407 15.8027 33.9062C14.9147 33.8255 14.0266 33.8255 13.1386 33.9062C12.2968 34.5152 11.4088 34.5959 10.4746 34.1484C9.73711 33.7295 9.03074 33.2652 8.35545 32.7559C8.10178 32.1411 7.98068 31.4953 7.99216 30.8184C7.61403 30.0819 7.1902 29.3755 6.72068 28.6992C5.39739 28.1476 4.91302 27.1588 5.26756 25.7324C4.90615 24.3358 5.39053 23.3873 6.72068 22.8867C7.1902 22.2104 7.61403 21.5041 7.99216 20.7676C7.80316 19.6329 8.18663 18.7652 9.14256 18.1641C9.86122 17.7445 10.5878 17.361 11.3222 17.0137ZM11.4433 19.0723C11.8624 19.2213 12.266 19.403 12.6543 19.6172C13.8249 19.698 14.9954 19.698 16.166 19.6172C16.5631 19.4994 16.9263 19.3177 17.2558 19.0723C17.7402 19.3548 18.2246 19.6374 18.709 19.9199C18.6921 20.858 18.9544 21.7057 19.4961 22.4629C19.8269 22.9159 20.1095 23.4003 20.3437 23.916C20.6421 24.3154 21.0255 24.598 21.4941 24.7637C21.635 25.4057 21.6551 26.0516 21.5547 26.7012C21.201 26.9285 20.8579 27.1707 20.5254 27.4277C20.0612 28.1946 19.5969 28.9616 19.1328 29.7285C18.9086 30.3528 18.7673 30.9985 18.709 31.666C18.2246 31.9485 17.7402 32.2312 17.2558 32.5137C16.9525 32.3014 16.6297 32.1198 16.2871 31.9688C15.0358 31.888 13.7844 31.888 12.5332 31.9688C12.2003 32.1047 11.8976 32.2864 11.625 32.5137C11.1106 32.2464 10.6061 31.9639 10.1113 31.666C10.0112 31.1866 9.95067 30.7022 9.92967 30.2129C9.40493 29.2845 8.88018 28.3562 8.35545 27.4277C7.99216 27.1855 7.62888 26.9434 7.2656 26.7012C7.16515 26.0516 7.18534 25.4057 7.32615 24.7637C7.79475 24.598 8.17821 24.3154 8.47654 23.916C8.84965 23.2099 9.2533 22.5237 9.68748 21.8574C9.91161 21.2332 10.0529 20.5874 10.1113 19.9199C10.5836 19.6647 11.0276 19.3821 11.4433 19.0723Z" fill="#2690EE"/>
<path opacity="0.928" fill-rule="evenodd" clip-rule="evenodd" d="M44.3809 17.0137C45.0616 17.0324 45.667 17.2544 46.1973 17.6797C47.045 17.7605 47.8926 17.7605 48.7403 17.6797C49.2072 17.3252 49.732 17.1032 50.3145 17.0137C51.1689 17.2997 51.9763 17.6831 52.7364 18.1641C53.6923 18.7652 54.0758 19.6329 53.8868 20.7676C54.25 21.4134 54.6133 22.0593 54.9766 22.7051C55.6459 22.979 56.1706 23.423 56.5508 24.0371C56.663 25.2973 56.6225 26.5487 56.4297 27.791C56.0592 28.1681 55.6353 28.4708 55.1582 28.6992C54.237 29.714 53.7727 30.9048 53.7657 32.2715C53.6372 32.6423 53.4152 32.945 53.0996 33.1797C52.3731 33.5833 51.6465 33.987 50.92 34.3906C50.1453 34.5684 49.4591 34.407 48.8614 33.9062C47.9329 33.8255 47.0046 33.8255 46.0762 33.9062C45.1783 34.5812 44.25 34.6216 43.2911 34.0273C42.5721 33.6378 41.9061 33.1735 41.293 32.6348C41.1524 32.0395 41.0718 31.434 41.0508 30.8184C40.6875 30.1726 40.3243 29.5267 39.961 28.8809C39.6282 28.6438 39.285 28.4218 38.9317 28.2148C38.7043 28.028 38.5226 27.806 38.3868 27.5488C38.2717 26.2855 38.312 25.0342 38.5078 23.7949C38.9272 23.3432 39.4116 22.98 39.961 22.7051C40.3243 22.0593 40.6875 21.4134 41.0508 20.7676C40.8521 19.6237 41.2356 18.7558 42.2012 18.1641C42.925 17.7421 43.6515 17.3585 44.3809 17.0137ZM44.502 19.0723C44.8897 19.2755 45.2933 19.4571 45.7129 19.6172C46.8835 19.698 48.054 19.698 49.2246 19.6172C49.5842 19.4375 49.9475 19.2558 50.3145 19.0723C50.7989 19.3548 51.2832 19.6374 51.7676 19.9199C51.826 20.5874 51.9673 21.2332 52.1914 21.8574C52.6256 22.5237 53.0293 23.2099 53.4024 23.916C53.7008 24.3154 54.0841 24.598 54.5528 24.7637C54.6936 25.4057 54.7137 26.0516 54.6133 26.7012C54.3407 26.9285 54.038 27.1101 53.7051 27.2461C53.1046 28.225 52.5192 29.214 51.9493 30.2129C51.9283 30.7022 51.8678 31.1866 51.7676 31.666C51.2832 31.9485 50.7989 32.2312 50.3145 32.5137C50.007 32.3078 49.6842 32.1262 49.3457 31.9688C48.0945 31.888 46.8431 31.888 45.5918 31.9688C45.2493 32.1198 44.9264 32.3014 44.6231 32.5137C44.1387 32.2312 43.6543 31.9485 43.17 31.666C43.0871 31.0959 42.9861 30.5309 42.8672 29.9707C42.4232 29.2038 41.9792 28.4368 41.5352 27.6699C41.2027 27.261 40.7989 26.9382 40.3243 26.7012C40.2239 26.0516 40.244 25.4057 40.3848 24.7637C40.8534 24.598 41.2368 24.3154 41.5352 23.916C42.0236 23.0256 42.5079 22.1375 42.9883 21.252C43.0095 20.8026 43.0701 20.3585 43.17 19.9199C43.6423 19.6647 44.0863 19.3821 44.502 19.0723Z" fill="#2690EE"/>
<path opacity="0.927" fill-rule="evenodd" clip-rule="evenodd" d="M13.8652 21.6152C16.6705 21.6151 18.2447 23.0077 18.5879 25.793C18.3266 28.3146 16.934 29.7072 14.4102 29.9707C11.8582 29.6993 10.4656 28.2865 10.2324 25.7324C10.4674 23.4802 11.6784 22.1077 13.8652 21.6152ZM13.9863 23.5527C13.4393 23.7372 12.9752 24.06 12.5938 24.5215C11.8167 26.4309 12.4423 27.6015 14.4707 28.0332C15.7498 27.8238 16.4764 27.077 16.6504 25.793C16.4083 24.2794 15.5202 23.5328 13.9863 23.5527Z" fill="#2690EE"/>
<path opacity="0.928" fill-rule="evenodd" clip-rule="evenodd" d="M46.9238 21.6152C49.732 21.6185 51.3063 23.0111 51.6464 25.793C51.3848 28.315 49.9923 29.7076 47.4687 29.9707C44.3744 29.5132 43.0423 27.7371 43.4726 24.6426C44.0496 22.9542 45.2 21.9451 46.9238 21.6152ZM47.0448 23.5527C46.7735 23.6885 46.4908 23.8297 46.1972 23.9766C44.9183 25.185 44.9183 26.3959 46.1972 27.6094C47.6229 28.2873 48.7329 27.9442 49.5273 26.5801C49.8424 24.6536 49.0149 23.6445 47.0448 23.5527Z" fill="#2690EE"/>
<path opacity="0.924" fill-rule="evenodd" clip-rule="evenodd" d="M19.3145 61.9394C18.9512 61.9394 18.5879 61.9394 18.2246 61.9394C16.9373 60.5914 15.6253 59.2593 14.2891 57.9433C13.9104 57.2077 13.8902 56.4609 14.2285 55.7031C6.22059 50.8196 1.45757 43.7356 -0.0605469 34.4511C-0.0605469 33.7649 -0.0605469 33.0788 -0.0605469 32.3925C0.627889 30.9789 1.7581 30.434 3.33008 30.7578C4.29294 31.0345 4.99933 31.6198 5.44922 32.5136C5.91198 34.2436 6.35599 35.9792 6.78125 37.7206C7.93788 41.4197 10.2588 44.1039 13.7441 45.7734C14.5727 45.8827 15.057 45.5194 15.1973 44.6835C14.8819 43.0139 14.5994 41.3388 14.3496 39.6581C14.5055 38.1298 15.3531 37.2822 16.8926 37.1152C18.0436 37.2157 18.871 37.7808 19.375 38.8105C20.8617 41.2437 22.4157 43.6253 24.0371 45.955C24.7328 45.6231 25.419 45.6433 26.0957 46.0156C27.4075 47.3274 28.7194 48.6393 30.0312 49.9511C30.2734 50.3547 30.2734 50.7584 30.0312 51.1621C28.679 52.5143 27.3269 53.8664 25.9746 55.2187C24.7031 55.5618 24.239 55.0976 24.582 53.8261C25.6736 52.7547 26.7433 51.6648 27.791 50.5566C26.903 49.5878 25.9746 48.6594 25.0059 47.7714C21.96 50.7568 18.9326 53.7639 15.9238 56.7929C16.8724 57.7414 17.821 58.6901 18.7695 59.6386C19.9199 58.4882 21.0703 57.3378 22.2207 56.1874C23.4538 55.8866 23.918 56.3509 23.6133 57.58C22.1559 59.0172 20.7229 60.4703 19.3145 61.9394ZM2.11914 32.6347C2.75371 32.5182 3.25826 32.7201 3.63281 33.2402C4.11727 35.0975 4.60165 36.9544 5.08594 38.8105C6.5595 42.9882 9.32448 45.955 13.3809 47.7109C15.6333 47.9374 16.8847 46.9283 17.1348 44.6835C16.8834 43.0229 16.6007 41.368 16.2871 39.7187C16.4691 39.1115 16.8123 38.9703 17.3164 39.2949C18.82 41.697 20.3539 44.0784 21.918 46.4394C22.1536 46.7878 22.315 47.1511 22.4023 47.5292C20.1823 49.7493 17.9622 51.9694 15.7422 54.1894C7.93871 49.7701 3.33715 43.1099 1.9375 34.2089C1.81379 33.6484 1.87434 33.1237 2.11914 32.6347Z" fill="#2690EE"/>
<path opacity="0.924" fill-rule="evenodd" clip-rule="evenodd" d="M61.9395 32.3925C61.9395 33.0788 61.9395 33.7649 61.9395 34.4511C61.0844 40.278 58.7231 45.4043 54.8555 49.83C54.3872 50.3389 53.8827 50.803 53.3418 51.2226C52.1879 51.3186 51.8044 50.8141 52.1914 49.7089C56.9024 45.0896 59.4857 39.4788 59.9414 32.8769C59.2837 32.4929 58.7186 32.614 58.2461 33.2402C57.7422 35.3562 57.1771 37.4551 56.5508 39.5371C55.0279 43.159 52.5052 45.8432 48.9824 47.5898C47.263 48.1048 45.9511 47.6003 45.0469 46.0761C44.8789 45.6263 44.778 45.1621 44.7441 44.6836C44.9955 43.0229 45.2782 41.368 45.5918 39.7187C45.4098 39.1116 45.0666 38.9704 44.5625 39.2949C43.0589 41.697 41.525 44.0785 39.9609 46.4394C39.7253 46.7878 39.5639 47.1511 39.4766 47.5293C41.6966 49.7493 43.9167 51.9694 46.1367 54.1894C47.4003 53.4501 48.6314 52.663 49.8301 51.8281C50.9852 51.6504 51.409 52.1147 51.1016 53.2207C50.0749 54.1057 48.9649 54.8726 47.7715 55.5214C47.7312 55.582 47.6907 55.6425 47.6504 55.7031C47.9887 56.4609 47.9685 57.2077 47.5898 57.9433C46.2536 59.2594 44.9416 60.5914 43.6543 61.9394C43.291 61.9394 42.9277 61.9394 42.5645 61.9394C39.0166 58.3309 35.4444 54.7386 31.8477 51.1621C31.6055 50.7585 31.6055 50.3547 31.8477 49.9511C33.1191 48.6797 34.3906 47.4082 35.6621 46.1367C36.3503 45.6573 37.0768 45.5967 37.8418 45.955C39.4632 43.6253 41.0172 41.2438 42.5039 38.8105C43.4963 37.1485 44.8485 36.765 46.5605 37.6601C47.2091 38.1905 47.5321 38.8766 47.5293 39.7187C47.2729 41.3778 46.9904 43.0328 46.6816 44.6836C46.8219 45.5195 47.3062 45.8828 48.1348 45.7734C51.6201 44.1039 53.9411 41.4197 55.0977 37.7207C55.5229 35.9792 55.967 34.2436 56.4297 32.5136C57.5262 30.7086 59.0399 30.2443 60.9707 31.1211C61.399 31.4771 61.7218 31.9009 61.9395 32.3925ZM36.752 47.7714C39.87 50.7076 42.9377 53.7149 45.9551 56.7929C45.0066 57.7415 44.0579 58.6901 43.1094 59.6386C40.1224 56.6516 37.1355 53.6647 34.1484 50.6777C34.0677 50.5969 34.0677 50.5163 34.1484 50.4355C35.0408 49.5634 35.9087 48.6754 36.752 47.7714Z" fill="#2690EE"/>
</g>
<defs>
<clipPath id="clip0_203_1309">
<rect width="62" height="62" fill="white"/>
</clipPath>
</defs>
</svg>
